<svg xmlns="http://www.w3.org/2000/svg" xmlns:xlink="http://www.w3.org/1999/xlink" width="1920" zoomAndPan="magnify" viewBox="0 0 1440 809.999993" height="1080" preserveAspectRatio="xMidYMid meet" version="1.2"><defs><clipPath id="ac6e352d4a"><path d="M 541 202 L 681 202 L 681 343 L 541 343 Z M 541 202 "/></clipPath><clipPath id="0031892b56"><path d="M 759 208 L 898.75 208 L 898.75 349 L 759 349 Z M 759 208 "/></clipPath><clipPath id="4c6ccae9cf"><path d="M 644 416 L 784 416 L 784 556.925781 L 644 556.925781 Z M 644 416 "/></clipPath></defs><g id="69d12427b8"><path style=" stroke:none;fill-rule:nonzero;fill:#5e4580;fill-opacity:1;" d="M 838.230469 269.574219 C 838.230469 270.71875 838.199219 271.863281 838.144531 273.003906 C 838.089844 274.148438 838.003906 275.289062 837.890625 276.425781 C 837.78125 277.566406 837.640625 278.699219 837.472656 279.832031 C 837.304688 280.960938 837.109375 282.089844 836.886719 283.210938 C 836.664062 284.332031 836.414062 285.449219 836.136719 286.558594 C 835.855469 287.667969 835.550781 288.773438 835.21875 289.867188 C 834.886719 290.960938 834.53125 292.046875 834.144531 293.125 C 833.757812 294.203125 833.347656 295.269531 832.910156 296.324219 C 832.472656 297.382812 832.007812 298.429688 831.519531 299.460938 C 831.03125 300.496094 830.519531 301.519531 829.980469 302.527344 C 829.441406 303.535156 828.875 304.53125 828.289062 305.511719 C 827.699219 306.492188 827.089844 307.460938 826.453125 308.410156 C 825.820312 309.363281 825.160156 310.296875 824.480469 311.214844 C 823.796875 312.136719 823.09375 313.039062 822.371094 313.921875 C 821.644531 314.804688 820.898438 315.671875 820.128906 316.519531 C 819.363281 317.367188 818.574219 318.195312 817.765625 319.003906 C 816.957031 319.8125 816.128906 320.601562 815.28125 321.371094 C 814.433594 322.140625 813.566406 322.886719 812.683594 323.613281 C 811.800781 324.335938 810.898438 325.039062 809.980469 325.722656 C 809.0625 326.402344 808.128906 327.0625 807.175781 327.699219 C 806.226562 328.332031 805.261719 328.945312 804.28125 329.535156 C 803.300781 330.121094 802.304688 330.6875 801.296875 331.226562 C 800.289062 331.765625 799.265625 332.277344 798.234375 332.769531 C 797.199219 333.257812 796.152344 333.71875 795.097656 334.15625 C 794.042969 334.597656 792.976562 335.007812 791.898438 335.394531 C 790.820312 335.777344 789.734375 336.136719 788.640625 336.46875 C 787.546875 336.800781 786.445312 337.105469 785.335938 337.382812 C 784.226562 337.664062 783.113281 337.914062 781.992188 338.136719 C 780.871094 338.359375 779.742188 338.554688 778.613281 338.722656 C 777.480469 338.890625 776.347656 339.03125 775.207031 339.144531 C 774.070312 339.253906 772.929688 339.339844 771.789062 339.394531 C 770.648438 339.453125 769.503906 339.480469 768.359375 339.480469 C 767.21875 339.480469 766.074219 339.453125 764.933594 339.394531 C 763.789062 339.339844 762.648438 339.253906 761.511719 339.144531 C 760.375 339.03125 759.238281 338.890625 758.109375 338.722656 C 756.976562 338.554688 755.851562 338.359375 754.730469 338.136719 C 753.609375 337.914062 752.492188 337.664062 751.382812 337.382812 C 750.273438 337.105469 749.171875 336.800781 748.078125 336.46875 C 746.984375 336.136719 745.898438 335.777344 744.824219 335.394531 C 743.746094 335.007812 742.679688 334.597656 741.621094 334.15625 C 740.566406 333.71875 739.519531 333.257812 738.488281 332.769531 C 737.453125 332.277344 736.433594 331.765625 735.425781 331.226562 C 734.417969 330.6875 733.421875 330.121094 732.441406 329.535156 C 731.460938 328.945312 730.496094 328.332031 729.542969 327.699219 C 728.59375 327.0625 727.65625 326.402344 726.738281 325.722656 C 725.820312 325.039062 724.921875 324.335938 724.035156 323.613281 C 723.152344 322.886719 722.285156 322.140625 721.441406 321.371094 C 720.59375 320.601562 719.765625 319.8125 718.957031 319.003906 C 718.148438 318.195312 717.359375 317.367188 716.589844 316.519531 C 715.824219 315.671875 715.078125 314.804688 714.351562 313.921875 C 713.625 313.039062 712.921875 312.136719 712.242188 311.214844 C 711.558594 310.296875 710.902344 309.363281 710.265625 308.410156 C 709.632812 307.460938 709.019531 306.492188 708.433594 305.511719 C 707.84375 304.53125 707.28125 303.535156 706.742188 302.527344 C 706.203125 301.519531 705.6875 300.496094 705.199219 299.460938 C 704.710938 298.429688 704.246094 297.382812 703.808594 296.324219 C 703.371094 295.269531 702.960938 294.203125 702.574219 293.125 C 702.191406 292.046875 701.832031 290.960938 701.5 289.867188 C 701.167969 288.773438 700.863281 287.667969 700.585938 286.558594 C 700.308594 285.449219 700.058594 284.332031 699.835938 283.210938 C 699.609375 282.089844 699.414062 280.964844 699.25 279.832031 C 699.082031 278.699219 698.941406 277.566406 698.828125 276.425781 C 698.714844 275.289062 698.632812 274.148438 698.574219 273.003906 C 698.519531 271.863281 698.492188 270.71875 698.492188 269.574219 C 698.492188 268.429688 698.519531 267.285156 698.574219 266.144531 C 698.632812 265 698.714844 263.859375 698.828125 262.722656 C 698.941406 261.582031 699.082031 260.449219 699.25 259.316406 C 699.414062 258.183594 699.609375 257.058594 699.835938 255.9375 C 700.058594 254.8125 700.308594 253.699219 700.585938 252.589844 C 700.863281 251.480469 701.167969 250.375 701.5 249.28125 C 701.832031 248.1875 702.191406 247.101562 702.574219 246.023438 C 702.960938 244.945312 703.371094 243.878906 703.808594 242.824219 C 704.246094 241.765625 704.710938 240.71875 705.199219 239.6875 C 705.6875 238.652344 706.203125 237.628906 706.742188 236.621094 C 707.28125 235.613281 707.84375 234.617188 708.433594 233.636719 C 709.019531 232.652344 709.632812 231.6875 710.265625 230.738281 C 710.902344 229.785156 711.558594 228.851562 712.242188 227.929688 C 712.921875 227.011719 713.625 226.109375 714.351562 225.226562 C 715.078125 224.34375 715.824219 223.476562 716.589844 222.628906 C 717.359375 221.78125 718.148438 220.953125 718.957031 220.144531 C 719.765625 219.335938 720.59375 218.546875 721.441406 217.777344 C 722.285156 217.007812 723.152344 216.261719 724.035156 215.535156 C 724.921875 214.8125 725.820312 214.105469 726.738281 213.425781 C 727.65625 212.742188 728.59375 212.085938 729.542969 211.449219 C 730.496094 210.8125 731.460938 210.203125 732.441406 209.613281 C 733.421875 209.027344 734.417969 208.460938 735.425781 207.921875 C 736.433594 207.382812 737.453125 206.871094 738.488281 206.378906 C 739.519531 205.890625 740.566406 205.429688 741.621094 204.988281 C 742.679688 204.550781 743.746094 204.140625 744.824219 203.753906 C 745.898438 203.371094 746.984375 203.011719 748.078125 202.679688 C 749.171875 202.347656 750.273438 202.042969 751.382812 201.765625 C 752.492188 201.484375 753.609375 201.234375 754.730469 201.011719 C 755.851562 200.789062 756.976562 200.59375 758.109375 200.425781 C 759.238281 200.257812 760.375 200.117188 761.511719 200.003906 C 762.648438 199.894531 763.789062 199.808594 764.933594 199.753906 C 766.074219 199.695312 767.21875 199.667969 768.359375 199.667969 C 769.503906 199.667969 770.648438 199.695312 771.789062 199.753906 C 772.929688 199.808594 774.070312 199.894531 775.207031 200.003906 C 776.347656 200.117188 777.480469 200.257812 778.613281 200.425781 C 779.742188 200.59375 780.871094 200.789062 781.992188 201.011719 C 783.113281 201.234375 784.226562 201.484375 785.335938 201.765625 C 786.445312 202.042969 787.546875 202.347656 788.640625 202.679688 C 789.734375 203.011719 790.820312 203.371094 791.898438 203.753906 C 792.976562 204.140625 794.042969 204.550781 795.097656 204.988281 C 796.152344 205.429688 797.199219 205.890625 798.234375 206.378906 C 799.265625 206.871094 800.289062 207.382812 801.296875 207.921875 C 802.304688 208.460938 803.300781 209.027344 804.28125 209.613281 C 805.261719 210.203125 806.226562 210.8125 807.175781 211.449219 C 808.128906 212.085938 809.0625 212.742188 809.980469 213.425781 C 810.898438 214.105469 811.800781 214.8125 812.683594 215.535156 C 813.566406 216.261719 814.433594 217.007812 815.28125 217.777344 C 816.128906 218.546875 816.957031 219.335938 817.765625 220.144531 C 818.574219 220.953125 819.363281 221.78125 820.128906 222.628906 C 820.898438 223.476562 821.644531 224.34375 822.371094 225.226562 C 823.09375 226.109375 823.796875 227.011719 824.480469 227.929688 C 825.160156 228.851562 825.820312 229.785156 826.453125 230.738281 C 827.089844 231.6875 827.699219 232.652344 828.289062 233.636719 C 828.875 234.617188 829.441406 235.613281 829.980469 236.621094 C 830.519531 237.628906 831.03125 238.652344 831.519531 239.6875 C 832.007812 240.71875 832.472656 241.765625 832.910156 242.824219 C 833.347656 243.878906 833.757812 244.945312 834.144531 246.023438 C 834.53125 247.101562 834.886719 248.1875 835.21875 249.28125 C 835.550781 250.375 835.855469 251.480469 836.136719 252.589844 C 836.414062 253.699219 836.664062 254.8125 836.886719 255.9375 C 837.109375 257.058594 837.304688 258.183594 837.472656 259.316406 C 837.640625 260.449219 837.78125 261.582031 837.890625 262.722656 C 838.003906 263.859375 838.089844 265 838.144531 266.144531 C 838.199219 267.285156 838.230469 268.429688 838.230469 269.574219 Z M 838.230469 269.574219 "/><path style=" stroke:none;fill-rule:nonzero;fill:#734d9a;fill-opacity:1;" d="M 828.921875 264.917969 C 828.921875 300.957031 799.722656 330.171875 763.714844 330.171875 C 727.6875 330.171875 698.492188 300.957031 698.492188 264.917969 C 698.492188 251.175781 702.746094 238.417969 709.996094 227.894531 C 720.054688 213.316406 735.886719 203.035156 754.1875 200.359375 C 757.300781 199.902344 760.472656 199.660156 763.714844 199.660156 C 799.722656 199.660156 828.921875 228.878906 828.921875 264.917969 Z M 828.921875 264.917969 "/><path style=" stroke:none;fill-rule:nonzero;fill:#8567aa;fill-opacity:1;" d="M 755.785156 210.453125 C 755.785156 228.378906 741.265625 242.898438 723.351562 242.898438 C 718.304688 242.898438 713.527344 241.742188 709.265625 239.675781 C 709.25 239.0625 709.238281 238.425781 709.238281 237.796875 C 709.238281 234.429688 709.496094 231.121094 709.992188 227.894531 C 720.054688 213.316406 735.882812 203.03125 754.1875 200.359375 C 755.222656 203.539062 755.785156 206.929688 755.785156 210.453125 Z M 755.785156 210.453125 "/><path style=" stroke:none;fill-rule:nonzero;fill:#5e4580;fill-opacity:1;" d="M 724.59375 269.574219 C 724.59375 270.71875 724.566406 271.863281 724.507812 273.003906 C 724.453125 274.148438 724.367188 275.289062 724.257812 276.425781 C 724.144531 277.5625 724.003906 278.699219 723.835938 279.832031 C 723.667969 280.960938 723.472656 282.089844 723.25 283.210938 C 723.027344 284.332031 722.777344 285.449219 722.5 286.558594 C 722.222656 287.667969 721.917969 288.769531 721.585938 289.867188 C 721.253906 290.960938 720.894531 292.046875 720.507812 293.125 C 720.125 294.199219 719.710938 295.269531 719.273438 296.324219 C 718.835938 297.382812 718.375 298.425781 717.886719 299.460938 C 717.394531 300.496094 716.882812 301.515625 716.34375 302.527344 C 715.804688 303.535156 715.242188 304.53125 714.652344 305.511719 C 714.066406 306.492188 713.453125 307.460938 712.816406 308.410156 C 712.183594 309.363281 711.523438 310.296875 710.84375 311.214844 C 710.164062 312.132812 709.460938 313.035156 708.734375 313.921875 C 708.007812 314.804688 707.261719 315.671875 706.492188 316.519531 C 705.726562 317.367188 704.9375 318.195312 704.128906 319.003906 C 703.320312 319.8125 702.492188 320.601562 701.644531 321.371094 C 700.796875 322.136719 699.933594 322.882812 699.050781 323.609375 C 698.164062 324.335938 697.265625 325.039062 696.347656 325.722656 C 695.425781 326.402344 694.492188 327.0625 693.542969 327.695312 C 692.589844 328.332031 691.625 328.945312 690.644531 329.53125 C 689.664062 330.121094 688.667969 330.683594 687.660156 331.222656 C 686.652344 331.761719 685.632812 332.277344 684.597656 332.765625 C 683.566406 333.253906 682.519531 333.71875 681.464844 334.15625 C 680.40625 334.59375 679.339844 335.007812 678.261719 335.390625 C 677.1875 335.777344 676.101562 336.136719 675.007812 336.46875 C 673.914062 336.800781 672.8125 337.105469 671.703125 337.382812 C 670.59375 337.660156 669.476562 337.910156 668.355469 338.132812 C 667.234375 338.359375 666.109375 338.554688 664.976562 338.722656 C 663.847656 338.890625 662.710938 339.027344 661.574219 339.140625 C 660.4375 339.253906 659.296875 339.335938 658.15625 339.394531 C 657.011719 339.449219 655.871094 339.476562 654.726562 339.476562 C 653.582031 339.476562 652.441406 339.449219 651.296875 339.394531 C 650.15625 339.335938 649.015625 339.253906 647.878906 339.140625 C 646.738281 339.027344 645.605469 338.890625 644.476562 338.722656 C 643.34375 338.554688 642.21875 338.359375 641.097656 338.132812 C 639.972656 337.910156 638.859375 337.660156 637.75 337.382812 C 636.640625 337.105469 635.539062 336.800781 634.445312 336.46875 C 633.351562 336.136719 632.265625 335.777344 631.1875 335.390625 C 630.113281 335.007812 629.046875 334.59375 627.988281 334.15625 C 626.933594 333.71875 625.886719 333.253906 624.855469 332.765625 C 623.820312 332.277344 622.800781 331.761719 621.792969 331.222656 C 620.78125 330.683594 619.789062 330.121094 618.808594 329.53125 C 617.828125 328.945312 616.859375 328.332031 615.910156 327.695312 C 614.960938 327.0625 614.023438 326.402344 613.105469 325.722656 C 612.1875 325.039062 611.289062 324.335938 610.402344 323.609375 C 609.519531 322.882812 608.652344 322.136719 607.804688 321.371094 C 606.960938 320.601562 606.132812 319.8125 605.324219 319.003906 C 604.515625 318.195312 603.726562 317.367188 602.957031 316.519531 C 602.191406 315.671875 601.445312 314.804688 600.71875 313.921875 C 599.992188 313.035156 599.289062 312.132812 598.609375 311.214844 C 597.925781 310.296875 597.269531 309.363281 596.632812 308.410156 C 596 307.460938 595.386719 306.492188 594.800781 305.511719 C 594.210938 304.53125 593.648438 303.535156 593.109375 302.527344 C 592.570312 301.515625 592.054688 300.496094 591.566406 299.460938 C 591.078125 298.425781 590.617188 297.382812 590.175781 296.324219 C 589.738281 295.269531 589.328125 294.199219 588.945312 293.125 C 588.558594 292.046875 588.199219 290.960938 587.867188 289.867188 C 587.535156 288.769531 587.230469 287.667969 586.953125 286.558594 C 586.675781 285.449219 586.425781 284.332031 586.203125 283.210938 C 585.980469 282.089844 585.785156 280.960938 585.617188 279.832031 C 585.449219 278.699219 585.308594 277.5625 585.195312 276.425781 C 585.082031 275.289062 585 274.148438 584.945312 273.003906 C 584.886719 271.863281 584.859375 270.71875 584.859375 269.574219 C 584.859375 268.429688 584.886719 267.285156 584.945312 266.144531 C 585 265 585.082031 263.859375 585.195312 262.722656 C 585.308594 261.582031 585.449219 260.449219 585.617188 259.316406 C 585.785156 258.183594 585.980469 257.058594 586.203125 255.9375 C 586.425781 254.816406 586.675781 253.699219 586.953125 252.589844 C 587.230469 251.480469 587.535156 250.375 587.867188 249.28125 C 588.199219 248.1875 588.558594 247.101562 588.945312 246.023438 C 589.328125 244.945312 589.738281 243.878906 590.175781 242.824219 C 590.617188 241.765625 591.078125 240.71875 591.566406 239.6875 C 592.054688 238.652344 592.570312 237.628906 593.109375 236.621094 C 593.648438 235.613281 594.210938 234.617188 594.800781 233.636719 C 595.386719 232.65625 596 231.6875 596.632812 230.738281 C 597.269531 229.785156 597.925781 228.851562 598.609375 227.933594 C 599.289062 227.011719 599.992188 226.113281 600.71875 225.226562 C 601.445312 224.34375 602.191406 223.476562 602.957031 222.628906 C 603.726562 221.78125 604.515625 220.953125 605.324219 220.144531 C 606.132812 219.335938 606.960938 218.546875 607.804688 217.777344 C 608.652344 217.011719 609.519531 216.261719 610.402344 215.539062 C 611.289062 214.8125 612.1875 214.109375 613.105469 213.425781 C 614.023438 212.746094 614.960938 212.085938 615.910156 211.453125 C 616.859375 210.816406 617.828125 210.203125 618.808594 209.617188 C 619.789062 209.027344 620.78125 208.464844 621.792969 207.925781 C 622.800781 207.386719 623.820312 206.871094 624.855469 206.382812 C 625.886719 205.894531 626.933594 205.429688 627.988281 204.992188 C 629.046875 204.554688 630.113281 204.140625 631.1875 203.757812 C 632.265625 203.371094 633.351562 203.011719 634.445312 202.679688 C 635.539062 202.347656 636.640625 202.042969 637.75 201.765625 C 638.859375 201.488281 639.972656 201.238281 641.097656 201.011719 C 642.21875 200.789062 643.34375 200.59375 644.476562 200.425781 C 645.605469 200.257812 646.738281 200.121094 647.878906 200.007812 C 649.015625 199.894531 650.15625 199.8125 651.296875 199.753906 C 652.441406 199.699219 653.582031 199.671875 654.726562 199.671875 C 655.871094 199.671875 657.011719 199.699219 658.15625 199.753906 C 659.296875 199.8125 660.4375 199.894531 661.574219 200.007812 C 662.710938 200.121094 663.847656 200.257812 664.976562 200.425781 C 666.109375 200.59375 667.234375 200.789062 668.355469 201.011719 C 669.476562 201.238281 670.59375 201.488281 671.703125 201.765625 C 672.8125 202.042969 673.914062 202.347656 675.007812 202.679688 C 676.101562 203.011719 677.1875 203.371094 678.261719 203.757812 C 679.339844 204.140625 680.40625 204.554688 681.464844 204.992188 C 682.519531 205.429688 683.566406 205.894531 684.597656 206.382812 C 685.632812 206.871094 686.652344 207.386719 687.660156 207.925781 C 688.667969 208.464844 689.664062 209.027344 690.644531 209.617188 C 691.625 210.203125 692.589844 210.816406 693.542969 211.453125 C 694.492188 212.085938 695.425781 212.746094 696.347656 213.425781 C 697.265625 214.109375 698.164062 214.8125 699.050781 215.539062 C 699.933594 216.261719 700.796875 217.011719 701.644531 217.777344 C 702.492188 218.546875 703.320312 219.335938 704.128906 220.144531 C 704.9375 220.953125 705.726562 221.78125 706.492188 222.628906 C 707.261719 223.476562 708.007812 224.34375 708.734375 225.226562 C 709.460938 226.113281 710.164062 227.011719 710.84375 227.933594 C 711.523438 228.851562 712.183594 229.785156 712.816406 230.738281 C 713.453125 231.6875 714.066406 232.65625 714.652344 233.636719 C 715.242188 234.617188 715.804688 235.613281 716.34375 236.621094 C 716.882812 237.628906 717.394531 238.652344 717.886719 239.6875 C 718.375 240.71875 718.835938 241.765625 719.273438 242.824219 C 719.710938 243.878906 720.125 244.945312 720.507812 246.023438 C 720.894531 247.101562 721.253906 248.1875 721.585938 249.28125 C 721.917969 250.375 722.222656 251.480469 722.5 252.589844 C 722.777344 253.699219 723.027344 254.816406 723.25 255.9375 C 723.472656 257.058594 723.667969 258.183594 723.835938 259.316406 C 724.003906 260.449219 724.144531 261.582031 724.257812 262.722656 C 724.367188 263.859375 724.453125 265 724.507812 266.144531 C 724.566406 267.285156 724.59375 268.429688 724.59375 269.574219 Z M 724.59375 269.574219 "/><path style=" stroke:none;fill-rule:nonzero;fill:#734d9a;fill-opacity:1;" d="M 719.941406 269.5625 C 719.941406 305.609375 690.746094 334.824219 654.722656 334.824219 C 619.339844 334.824219 590.539062 306.621094 589.546875 271.445312 C 589.523438 270.828125 589.515625 270.191406 589.515625 269.5625 C 589.515625 246.265625 601.734375 225.808594 620.101562 214.265625 C 630.132812 207.96875 642.003906 204.324219 654.722656 204.324219 C 690.742188 204.324219 719.941406 233.539062 719.941406 269.5625 Z M 719.941406 269.5625 "/><path style=" stroke:none;fill-rule:nonzero;fill:#8567aa;fill-opacity:1;" d="M 642.460938 243.4375 C 642.460938 261.359375 627.941406 275.878906 610.023438 275.878906 C 604.976562 275.878906 600.199219 274.722656 595.941406 272.65625 C 595.921875 272.042969 595.910156 271.40625 595.910156 270.78125 C 595.910156 247.476562 608.125 227.019531 626.5 215.484375 C 626.519531 215.492188 626.53125 215.5 626.550781 215.511719 C 636.078125 221.160156 642.460938 231.5625 642.460938 243.4375 Z M 642.460938 243.4375 "/><g clip-rule="nonzero" clip-path="url(#ac6e352d4a)"><path style=" stroke:none;fill-rule:nonzero;fill:#5e4580;fill-opacity:1;" d="M 680.699219 272.511719 C 680.699219 273.65625 680.671875 274.796875 680.613281 275.941406 C 680.558594 277.085938 680.472656 278.226562 680.363281 279.363281 C 680.25 280.5 680.109375 281.636719 679.941406 282.769531 C 679.773438 283.898438 679.578125 285.027344 679.355469 286.148438 C 679.132812 287.269531 678.882812 288.386719 678.605469 289.496094 C 678.328125 290.605469 678.023438 291.707031 677.691406 292.804688 C 677.359375 293.898438 677 294.984375 676.613281 296.0625 C 676.230469 297.136719 675.816406 298.207031 675.378906 299.261719 C 674.941406 300.320312 674.480469 301.363281 673.988281 302.398438 C 673.5 303.433594 672.988281 304.453125 672.449219 305.464844 C 671.910156 306.472656 671.347656 307.46875 670.757812 308.449219 C 670.171875 309.429688 669.558594 310.398438 668.921875 311.347656 C 668.289062 312.300781 667.628906 313.234375 666.949219 314.152344 C 666.269531 315.070312 665.5625 315.972656 664.839844 316.859375 C 664.113281 317.742188 663.367188 318.609375 662.597656 319.457031 C 661.832031 320.304688 661.042969 321.132812 660.234375 321.941406 C 659.425781 322.75 658.597656 323.539062 657.75 324.304688 C 656.902344 325.074219 656.039062 325.820312 655.152344 326.546875 C 654.269531 327.273438 653.371094 327.976562 652.449219 328.660156 C 651.53125 329.339844 650.597656 330 649.648438 330.632812 C 648.695312 331.269531 647.730469 331.882812 646.75 332.46875 C 645.769531 333.058594 644.773438 333.621094 643.765625 334.160156 C 642.757812 334.699219 641.738281 335.214844 640.703125 335.703125 C 639.667969 336.191406 638.625 336.65625 637.566406 337.09375 C 636.511719 337.53125 635.445312 337.941406 634.367188 338.328125 C 633.292969 338.714844 632.207031 339.074219 631.113281 339.40625 C 630.019531 339.738281 628.917969 340.042969 627.808594 340.320312 C 626.699219 340.597656 625.582031 340.847656 624.460938 341.070312 C 623.339844 341.296875 622.214844 341.492188 621.082031 341.660156 C 619.953125 341.828125 618.816406 341.964844 617.679688 342.078125 C 616.542969 342.191406 615.402344 342.273438 614.257812 342.332031 C 613.117188 342.386719 611.976562 342.414062 610.832031 342.414062 C 609.6875 342.414062 608.546875 342.386719 607.402344 342.332031 C 606.261719 342.273438 605.121094 342.191406 603.984375 342.078125 C 602.84375 341.964844 601.710938 341.828125 600.578125 341.660156 C 599.449219 341.492188 598.324219 341.296875 597.199219 341.070312 C 596.078125 340.847656 594.964844 340.597656 593.855469 340.320312 C 592.746094 340.042969 591.644531 339.738281 590.550781 339.40625 C 589.457031 339.074219 588.371094 338.714844 587.292969 338.328125 C 586.21875 337.941406 585.152344 337.53125 584.09375 337.09375 C 583.039062 336.65625 581.992188 336.191406 580.960938 335.703125 C 579.925781 335.214844 578.90625 334.699219 577.894531 334.160156 C 576.886719 333.621094 575.894531 333.058594 574.914062 332.46875 C 573.933594 331.882812 572.964844 331.269531 572.015625 330.632812 C 571.066406 330 570.128906 329.339844 569.210938 328.660156 C 568.292969 327.976562 567.390625 327.273438 566.507812 326.546875 C 565.625 325.820312 564.757812 325.074219 563.910156 324.304688 C 563.0625 323.539062 562.238281 322.75 561.429688 321.941406 C 560.621094 321.132812 559.832031 320.304688 559.0625 319.457031 C 558.296875 318.609375 557.550781 317.742188 556.824219 316.859375 C 556.097656 315.972656 555.394531 315.070312 554.714844 314.152344 C 554.03125 313.234375 553.375 312.300781 552.738281 311.347656 C 552.105469 310.398438 551.492188 309.429688 550.90625 308.449219 C 550.316406 307.46875 549.753906 306.472656 549.214844 305.464844 C 548.675781 304.453125 548.160156 303.433594 547.671875 302.398438 C 547.183594 301.363281 546.71875 300.320312 546.28125 299.261719 C 545.84375 298.207031 545.433594 297.136719 545.046875 296.0625 C 544.664062 294.984375 544.304688 293.898438 543.972656 292.804688 C 543.640625 291.707031 543.335938 290.605469 543.058594 289.496094 C 542.78125 288.386719 542.53125 287.269531 542.308594 286.148438 C 542.082031 285.027344 541.886719 283.898438 541.71875 282.769531 C 541.554688 281.636719 541.414062 280.5 541.300781 279.363281 C 541.1875 278.226562 541.105469 277.085938 541.046875 275.941406 C 540.992188 274.796875 540.964844 273.65625 540.964844 272.511719 C 540.964844 271.367188 540.992188 270.222656 541.046875 269.082031 C 541.105469 267.9375 541.1875 266.796875 541.300781 265.660156 C 541.414062 264.519531 541.554688 263.386719 541.71875 262.253906 C 541.886719 261.121094 542.082031 259.996094 542.308594 258.875 C 542.53125 257.75 542.78125 256.636719 543.058594 255.527344 C 543.335938 254.417969 543.640625 253.3125 543.972656 252.21875 C 544.304688 251.125 544.664062 250.039062 545.046875 248.960938 C 545.433594 247.882812 545.84375 246.816406 546.28125 245.761719 C 546.71875 244.703125 547.183594 243.65625 547.671875 242.625 C 548.160156 241.589844 548.675781 240.566406 549.214844 239.558594 C 549.753906 238.550781 550.316406 237.554688 550.90625 236.574219 C 551.492188 235.59375 552.105469 234.625 552.738281 233.675781 C 553.375 232.722656 554.03125 231.789062 554.714844 230.871094 C 555.394531 229.949219 556.097656 229.050781 556.824219 228.164062 C 557.550781 227.28125 558.296875 226.414062 559.0625 225.566406 C 559.832031 224.71875 560.621094 223.890625 561.429688 223.082031 C 562.238281 222.273438 563.0625 221.484375 563.910156 220.714844 C 564.757812 219.949219 565.625 219.199219 566.507812 218.476562 C 567.390625 217.75 568.292969 217.046875 569.210938 216.363281 C 570.128906 215.683594 571.066406 215.023438 572.015625 214.390625 C 572.964844 213.753906 573.933594 213.140625 574.914062 212.554688 C 575.894531 211.964844 576.886719 211.402344 577.894531 210.863281 C 578.90625 210.324219 579.925781 209.808594 580.960938 209.320312 C 581.992188 208.832031 583.039062 208.367188 584.09375 207.929688 C 585.152344 207.492188 586.21875 207.078125 587.292969 206.695312 C 588.371094 206.308594 589.457031 205.949219 590.550781 205.617188 C 591.644531 205.285156 592.746094 204.980469 593.855469 204.703125 C 594.964844 204.425781 596.078125 204.175781 597.199219 203.949219 C 598.324219 203.726562 599.449219 203.53125 600.578125 203.363281 C 601.710938 203.195312 602.84375 203.058594 603.984375 202.945312 C 605.121094 202.832031 606.261719 202.75 607.402344 202.691406 C 608.546875 202.636719 609.6875 202.609375 610.832031 202.609375 C 611.976562 202.609375 613.117188 202.636719 614.257812 202.691406 C 615.402344 202.75 616.542969 202.832031 617.679688 202.945312 C 618.816406 203.058594 619.953125 203.195312 621.082031 203.363281 C 622.214844 203.53125 623.339844 203.726562 624.460938 203.949219 C 625.582031 204.175781 626.699219 204.425781 627.808594 204.703125 C 628.917969 204.980469 630.019531 205.285156 631.113281 205.617188 C 632.207031 205.949219 633.292969 206.308594 634.367188 206.695312 C 635.445312 207.078125 636.511719 207.492188 637.566406 207.929688 C 638.625 208.367188 639.667969 208.832031 640.703125 209.320312 C 641.738281 209.808594 642.757812 210.324219 643.765625 210.863281 C 644.773438 211.402344 645.769531 211.964844 646.75 212.554688 C 647.730469 213.140625 648.695312 213.753906 649.648438 214.390625 C 650.597656 215.023438 651.53125 215.683594 652.449219 216.363281 C 653.371094 217.046875 654.269531 217.75 655.152344 218.476562 C 656.039062 219.199219 656.902344 219.949219 657.75 220.714844 C 658.597656 221.484375 659.425781 222.273438 660.234375 223.082031 C 661.042969 223.890625 661.832031 224.71875 662.597656 225.566406 C 663.367188 226.414062 664.113281 227.28125 664.839844 228.164062 C 665.5625 229.050781 666.269531 229.949219 666.949219 230.871094 C 667.628906 231.789062 668.289062 232.722656 668.921875 233.675781 C 669.558594 234.625 670.171875 235.59375 670.757812 236.574219 C 671.347656 237.554688 671.910156 238.550781 672.449219 239.558594 C 672.988281 240.566406 673.5 241.589844 673.988281 242.625 C 674.480469 243.65625 674.941406 244.703125 675.378906 245.761719 C 675.816406 246.816406 676.230469 247.882812 676.613281 248.960938 C 677 250.039062 677.359375 251.125 677.691406 252.21875 C 678.019531 253.3125 678.328125 254.417969 678.605469 255.527344 C 678.882812 256.636719 679.132812 257.75 679.355469 258.875 C 679.578125 259.996094 679.773438 261.121094 679.941406 262.253906 C 680.109375 263.386719 680.25 264.519531 680.363281 265.660156 C 680.472656 266.796875 680.558594 267.9375 680.613281 269.082031 C 680.671875 270.222656 680.699219 271.367188 680.699219 272.511719 Z M 680.699219 272.511719 "/></g><path style=" stroke:none;fill-rule:nonzero;fill:#734d9a;fill-opacity:1;" d="M 667.917969 270.605469 C 667.917969 304.929688 640.117188 332.742188 605.816406 332.742188 C 571.957031 332.742188 544.417969 305.625 543.734375 271.898438 C 543.714844 271.472656 543.714844 271.046875 543.714844 270.605469 C 543.714844 247.128906 556.734375 226.6875 575.949219 216.121094 C 584.808594 211.246094 594.988281 208.476562 605.816406 208.476562 C 640.117188 208.472656 667.917969 236.296875 667.917969 270.605469 Z M 667.917969 270.605469 "/><path style=" stroke:none;fill-rule:nonzero;fill:#8567aa;fill-opacity:1;" d="M 595.652344 245.972656 C 595.652344 263.898438 581.132812 278.417969 563.21875 278.417969 C 555.910156 278.417969 549.15625 276 543.734375 271.898438 C 543.714844 271.472656 543.714844 271.046875 543.714844 270.605469 C 543.714844 247.128906 556.734375 226.6875 575.949219 216.121094 C 577.269531 216.679688 578.535156 217.324219 579.746094 218.050781 C 589.269531 223.699219 595.652344 234.101562 595.652344 245.972656 Z M 595.652344 245.972656 "/><g clip-rule="nonzero" clip-path="url(#0031892b56)"><path style=" stroke:none;fill-rule:nonzero;fill:#5e4580;fill-opacity:1;" d="M 898.789062 278.417969 C 898.789062 317.023438 867.511719 348.320312 828.925781 348.320312 C 790.339844 348.320312 759.054688 317.023438 759.054688 278.417969 C 759.054688 239.8125 790.339844 208.511719 828.925781 208.511719 C 867.511719 208.511719 898.789062 239.8125 898.789062 278.417969 Z M 898.789062 278.417969 "/></g><path style=" stroke:none;fill-rule:nonzero;fill:#734d9a;fill-opacity:1;" d="M 886.011719 276.507812 C 886.011719 310.835938 858.210938 338.640625 823.910156 338.640625 C 790.050781 338.640625 762.511719 311.523438 761.828125 277.800781 C 761.804688 277.371094 761.804688 276.945312 761.804688 276.507812 C 761.804688 253.027344 774.824219 232.589844 794.042969 222.023438 C 802.902344 217.148438 813.082031 214.375 823.90625 214.375 C 858.210938 214.378906 886.011719 242.199219 886.011719 276.507812 Z M 886.011719 276.507812 "/><path style=" stroke:none;fill-rule:nonzero;fill:#8567aa;fill-opacity:1;" d="M 813.746094 251.878906 C 813.746094 269.804688 799.230469 284.324219 781.3125 284.324219 C 774.003906 284.324219 767.246094 281.90625 761.828125 277.804688 C 761.800781 277.375 761.800781 276.949219 761.800781 276.507812 C 761.800781 253.03125 774.824219 232.589844 794.039062 222.027344 C 795.359375 222.585938 796.625 223.230469 797.835938 223.957031 C 807.363281 229.601562 813.746094 240.003906 813.746094 251.878906 Z M 813.746094 251.878906 "/><path style=" stroke:none;fill-rule:nonzero;fill:#5e4580;fill-opacity:1;" d="M 695.132812 334.820312 C 695.132812 373.429688 663.855469 404.726562 625.269531 404.726562 C 586.683594 404.726562 555.398438 373.429688 555.398438 334.820312 C 555.398438 296.214844 586.683594 264.917969 625.269531 264.917969 C 663.855469 264.917969 695.132812 296.214844 695.132812 334.820312 Z M 695.132812 334.820312 "/><path style=" stroke:none;fill-rule:nonzero;fill:#734d9a;fill-opacity:1;" d="M 682.355469 332.910156 C 682.355469 367.234375 654.554688 395.046875 620.25 395.046875 C 586.394531 395.046875 558.855469 367.929688 558.167969 334.203125 C 558.148438 333.777344 558.148438 333.347656 558.148438 332.910156 C 558.148438 309.429688 571.167969 288.992188 590.382812 278.429688 C 599.246094 273.554688 609.421875 270.777344 620.25 270.777344 C 654.554688 270.777344 682.355469 298.597656 682.355469 332.910156 Z M 682.355469 332.910156 "/><path style=" stroke:none;fill-rule:nonzero;fill:#8567aa;fill-opacity:1;" d="M 610.089844 308.28125 C 610.089844 326.207031 595.570312 340.726562 577.65625 340.726562 C 570.34375 340.726562 563.59375 338.3125 558.167969 334.207031 C 558.148438 333.78125 558.148438 333.351562 558.148438 332.914062 C 558.148438 309.433594 571.167969 288.996094 590.382812 278.433594 C 591.703125 278.988281 592.96875 279.636719 594.179688 280.363281 C 603.703125 286.003906 610.089844 296.40625 610.089844 308.28125 Z M 610.089844 308.28125 "/><path style=" stroke:none;fill-rule:nonzero;fill:#8faf5e;fill-opacity:1;" d="M 860.648438 150.539062 L 860.617188 150.648438 C 860.402344 151.382812 860.160156 152.144531 859.902344 152.910156 C 859.476562 154.148438 859.023438 155.398438 858.484375 156.699219 C 858.195312 157.453125 857.871094 158.214844 857.527344 158.996094 C 851.820312 171.867188 840.714844 187.105469 819.820312 202.902344 C 818.992188 203.539062 818.128906 204.175781 817.269531 204.804688 C 816.324219 205.507812 815.347656 206.191406 814.355469 206.890625 C 813.496094 207.511719 812.597656 208.109375 811.707031 208.710938 C 797.101562 218.683594 778.453125 228.773438 754.683594 238.5625 C 746.859375 241.800781 737.464844 240.660156 729.824219 237.015625 C 727.820312 236.078125 725.9375 234.953125 724.242188 233.683594 C 724.113281 233.601562 724.003906 233.507812 723.886719 233.425781 C 714.261719 226.058594 710.621094 214.191406 723.984375 203.980469 C 723.984375 203.980469 737.417969 171.230469 769.917969 147.117188 C 773.804688 144.222656 777.96875 141.457031 782.421875 138.886719 C 782.617188 138.757812 782.832031 138.640625 783.023438 138.527344 C 787.707031 135.863281 792.683594 133.417969 798 131.269531 C 813.773438 124.859375 832.394531 121.085938 854.144531 122.082031 C 854.359375 122.082031 854.582031 122.082031 854.796875 122.101562 C 857.007812 122.199219 859.269531 122.355469 861.5625 122.570312 C 861.5625 122.570312 861.9375 123.5625 862.308594 125.417969 C 862.324219 125.527344 862.359375 125.644531 862.375 125.777344 C 863.230469 130.214844 864.0625 139.039062 860.648438 150.539062 Z M 860.648438 150.539062 "/><path style=" stroke:none;fill-rule:nonzero;fill:#60743e;fill-opacity:1;" d="M 854.144531 122.085938 C 833.332031 132.152344 815.234375 143.636719 799.757812 155.289062 C 799.738281 155.289062 799.738281 155.304688 799.71875 155.304688 C 799.707031 155.320312 799.6875 155.320312 799.671875 155.335938 C 799.28125 155.628906 798.925781 155.90625 798.535156 156.195312 C 798.519531 156.214844 798.5 156.234375 798.484375 156.25 L 798.46875 156.25 C 792.253906 160.964844 786.484375 165.699219 781.121094 170.386719 C 779.460938 171.835938 777.835938 173.28125 776.257812 174.714844 C 768.371094 181.871094 761.476562 188.816406 755.558594 195.277344 C 755.558594 195.296875 755.539062 195.296875 755.539062 195.296875 C 755.152344 195.714844 754.761719 196.136719 754.386719 196.5625 L 754.371094 196.578125 C 736.957031 215.726562 728.140625 230.203125 727.085938 231.992188 C 728.777344 233.265625 730.664062 234.386719 732.664062 235.328125 C 733.457031 233.996094 742.046875 219.761719 759.296875 200.789062 C 761.820312 198.027344 764.535156 195.148438 767.445312 192.1875 C 771.800781 187.746094 776.597656 183.125 781.835938 178.421875 L 781.851562 178.421875 C 782.859375 177.496094 783.886719 176.585938 784.925781 175.6875 L 784.925781 175.671875 C 790.519531 170.777344 796.566406 165.8125 803.121094 160.882812 C 808.777344 156.585938 814.8125 152.324219 821.214844 148.160156 C 821.214844 148.160156 821.214844 148.160156 821.234375 148.140625 L 821.25 148.140625 C 833.558594 140.089844 847.230469 132.378906 862.304688 125.417969 Z M 854.144531 122.085938 "/><path style=" stroke:none;fill-rule:nonzero;fill:#60743e;fill-opacity:1;" d="M 860.648438 150.539062 C 845.507812 145.820312 831.835938 146.207031 821.25 148.144531 L 821.234375 148.144531 C 821.21875 148.160156 821.21875 148.160156 821.21875 148.160156 C 809.542969 150.28125 801.644531 154.261719 799.757812 155.289062 C 799.742188 155.289062 799.742188 155.304688 799.722656 155.304688 C 799.707031 155.324219 799.691406 155.324219 799.675781 155.335938 C 799.511719 155.421875 799.398438 155.484375 799.351562 155.515625 C 799.023438 155.695312 798.75 155.925781 798.539062 156.199219 C 798.519531 156.214844 798.5 156.234375 798.488281 156.25 L 798.46875 156.25 C 797.625 157.257812 797.445312 158.738281 798.128906 159.960938 C 798.730469 161.015625 799.835938 161.601562 800.960938 161.601562 C 801.511719 161.601562 802.0625 161.453125 802.566406 161.175781 C 802.585938 161.164062 802.777344 161.066406 803.121094 160.886719 C 806.90625 158.933594 830.0625 148.015625 858.484375 156.703125 Z M 860.648438 150.539062 "/><path style=" stroke:none;fill-rule:nonzero;fill:#60743e;fill-opacity:1;" d="M 784.921875 175.671875 L 784.921875 175.6875 C 784.859375 176.160156 784.679688 176.601562 784.386719 177.023438 C 783.800781 177.882812 782.84375 178.371094 781.851562 178.417969 L 781.703125 178.417969 C 781.070312 178.417969 780.4375 178.242188 779.867188 177.855469 C 779.691406 177.738281 778.144531 176.644531 776.257812 174.714844 C 772.828125 171.183594 768.308594 164.816406 769.023438 156.3125 C 769.332031 152.648438 770.582031 149.019531 772.761719 145.429688 C 775.804688 143.144531 779.023438 140.96875 782.421875 138.886719 C 782.613281 138.757812 782.828125 138.640625 783.019531 138.527344 C 787.703125 135.859375 792.679688 133.417969 798 131.269531 C 780.679688 141.8125 776.011719 150.746094 775.511719 156.84375 C 774.988281 163.046875 778.582031 167.828125 781.117188 170.382812 C 782.46875 171.730469 783.523438 172.460938 783.558594 172.476562 C 784.632812 173.214844 785.121094 174.46875 784.921875 175.671875 Z M 784.921875 175.671875 "/><path style=" stroke:none;fill-rule:nonzero;fill:#60743e;fill-opacity:1;" d="M 819.820312 202.902344 C 818.992188 203.539062 818.128906 204.175781 817.269531 204.804688 C 816.324219 205.507812 815.347656 206.191406 814.355469 206.890625 C 791.394531 191.160156 764.613281 198.984375 759.300781 200.789062 C 758.84375 200.9375 758.554688 201.050781 758.421875 201.101562 C 756.746094 201.71875 754.859375 200.886719 754.226562 199.195312 C 753.882812 198.304688 753.96875 197.359375 754.375 196.578125 L 754.390625 196.5625 C 754.632812 196.058594 755.039062 195.601562 755.542969 195.296875 C 755.542969 195.296875 755.5625 195.296875 755.5625 195.277344 C 755.738281 195.179688 755.917969 195.082031 756.113281 195.015625 C 756.257812 194.949219 760.617188 193.351562 767.445312 192.1875 C 780.144531 190.003906 801.363281 189.324219 819.820312 202.902344 Z M 819.820312 202.902344 "/><path style=" stroke:none;fill-rule:nonzero;fill:#728949;fill-opacity:1;" d="M 862.371094 125.777344 C 846.144531 133.082031 831.496094 141.261719 818.402344 149.835938 L 818.386719 149.835938 C 818.371094 149.855469 818.371094 149.855469 818.371094 149.855469 C 811.964844 154.015625 805.933594 158.28125 800.273438 162.574219 C 793.71875 167.507812 787.675781 172.464844 782.078125 177.363281 L 782.078125 177.382812 C 781.039062 178.273438 780.011719 179.191406 779.007812 180.117188 L 778.988281 180.117188 C 773.753906 184.816406 768.957031 189.4375 764.597656 193.875 C 761.691406 196.835938 758.972656 199.71875 756.453125 202.484375 C 739.203125 221.453125 730.613281 235.6875 729.820312 237.019531 C 727.820312 236.082031 725.933594 234.953125 724.242188 233.6875 C 725.300781 231.898438 734.109375 217.417969 751.527344 198.269531 L 751.542969 198.253906 C 751.917969 197.828125 752.308594 197.40625 752.699219 196.980469 C 752.699219 196.980469 752.714844 196.980469 752.714844 196.96875 C 758.632812 190.507812 765.527344 183.5625 773.410156 176.40625 C 774.992188 174.972656 776.617188 173.523438 778.273438 172.074219 C 783.640625 167.390625 789.410156 162.65625 795.625 157.9375 L 795.640625 157.9375 L 795.6875 157.894531 C 796.078125 157.601562 796.4375 157.320312 796.824219 157.027344 C 796.84375 157.011719 796.859375 157.011719 796.875 156.996094 C 796.890625 156.996094 796.890625 156.980469 796.910156 156.980469 C 813.25 144.679688 832.5 132.558594 854.792969 122.101562 C 857.003906 122.199219 859.265625 122.359375 861.558594 122.570312 C 861.558594 122.570312 861.980469 123.695312 862.371094 125.777344 Z M 862.371094 125.777344 "/><path style=" stroke:none;fill-rule:nonzero;fill:#728949;fill-opacity:1;" d="M 859.902344 152.910156 C 859.234375 154.859375 858.453125 156.898438 857.527344 158.996094 C 828.242188 149.21875 804.140625 160.574219 800.273438 162.574219 C 799.929688 162.753906 799.738281 162.851562 799.71875 162.871094 C 799.21875 163.144531 798.664062 163.292969 798.113281 163.292969 C 796.988281 163.292969 795.882812 162.703125 795.28125 161.648438 C 794.597656 160.429688 794.777344 158.949219 795.621094 157.9375 L 795.636719 157.9375 C 795.867188 157.644531 796.160156 157.402344 796.5 157.203125 C 796.546875 157.175781 796.660156 157.109375 796.824219 157.027344 C 796.839844 157.007812 796.855469 157.007812 796.871094 156.996094 C 798.710938 156 806.628906 151.984375 818.367188 149.851562 C 818.367188 149.851562 818.367188 149.851562 818.382812 149.835938 C 829.460938 147.820312 843.933594 147.476562 859.902344 152.910156 Z M 859.902344 152.910156 "/><path style=" stroke:none;fill-rule:nonzero;fill:#728949;fill-opacity:1;" d="M 782.078125 177.363281 C 782.015625 177.832031 781.832031 178.289062 781.542969 178.710938 C 780.957031 179.578125 780 180.0625 779.007812 180.113281 L 778.859375 180.113281 C 778.226562 180.113281 777.589844 179.9375 777.023438 179.546875 C 776.84375 179.429688 775.296875 178.34375 773.410156 176.402344 C 769.980469 172.871094 765.460938 166.511719 766.175781 158.003906 C 766.484375 154.34375 767.734375 150.714844 769.914062 147.117188 C 778.042969 141.066406 787.378906 135.566406 798 131.269531 C 778.339844 142.5625 773.199219 152.113281 772.664062 158.539062 C 772.144531 164.734375 775.738281 169.519531 778.273438 172.070312 C 779.621094 173.421875 780.679688 174.15625 780.714844 174.171875 C 781.785156 174.902344 782.277344 176.160156 782.078125 177.363281 Z M 782.078125 177.363281 "/><path style=" stroke:none;fill-rule:nonzero;fill:#728949;fill-opacity:1;" d="M 817.269531 204.804688 C 815.480469 206.105469 813.625 207.425781 811.707031 208.710938 C 788.695312 192.800781 761.785156 200.671875 756.457031 202.480469 C 756 202.632812 755.707031 202.742188 755.578125 202.792969 C 753.902344 203.410156 752.015625 202.578125 751.382812 200.886719 C 751.039062 199.992188 751.121094 199.046875 751.527344 198.269531 L 751.542969 198.253906 C 751.789062 197.75 752.195312 197.296875 752.699219 196.980469 C 752.699219 196.980469 752.714844 196.980469 752.714844 196.96875 C 752.890625 196.867188 753.070312 196.777344 753.265625 196.707031 C 753.414062 196.644531 757.769531 195.046875 764.597656 193.875 C 777.363281 191.679688 798.746094 191.011719 817.269531 204.804688 Z M 817.269531 204.804688 "/><path style=" stroke:none;fill-rule:nonzero;fill:#8faf5e;fill-opacity:1;" d="M 585.570312 159.222656 L 585.601562 159.332031 C 585.8125 160.066406 586.058594 160.832031 586.316406 161.59375 C 586.742188 162.832031 587.195312 164.082031 587.730469 165.386719 C 588.027344 166.132812 588.351562 166.902344 588.691406 167.683594 C 594.402344 180.550781 605.507812 195.792969 626.402344 211.589844 C 627.230469 212.226562 628.089844 212.855469 628.953125 213.492188 C 629.898438 214.191406 630.871094 214.875 631.863281 215.574219 C 632.722656 216.191406 633.617188 216.796875 634.515625 217.398438 C 649.113281 227.371094 667.765625 237.453125 691.535156 247.25 C 699.359375 250.488281 708.757812 249.347656 716.398438 245.703125 C 718.402344 244.761719 720.285156 243.636719 721.976562 242.371094 C 722.105469 242.289062 722.21875 242.191406 722.332031 242.113281 C 731.960938 234.742188 735.601562 222.878906 722.234375 212.664062 C 722.234375 212.664062 708.804688 179.914062 676.296875 155.800781 C 672.410156 152.910156 668.25 150.144531 663.796875 147.574219 C 663.601562 147.445312 663.390625 147.328125 663.195312 147.214844 C 658.511719 144.546875 653.535156 142.105469 648.21875 139.957031 C 632.445312 133.546875 613.828125 129.773438 592.074219 130.769531 C 591.863281 130.769531 591.636719 130.769531 591.425781 130.78125 C 589.210938 130.882812 586.953125 131.042969 584.660156 131.253906 C 584.660156 131.253906 584.285156 132.25 583.910156 134.105469 C 583.894531 134.214844 583.863281 134.332031 583.847656 134.464844 C 582.980469 138.90625 582.152344 147.722656 585.570312 159.222656 Z M 585.570312 159.222656 "/><path style=" stroke:none;fill-rule:nonzero;fill:#60743e;fill-opacity:1;" d="M 583.90625 134.105469 C 598.980469 141.070312 612.65625 148.777344 624.964844 156.832031 L 624.980469 156.832031 C 624.996094 156.847656 624.996094 156.847656 624.996094 156.847656 C 631.40625 161.011719 637.4375 165.269531 643.09375 169.570312 C 649.644531 174.5 655.695312 179.460938 661.289062 184.355469 L 661.289062 184.375 C 662.332031 185.269531 663.355469 186.179688 664.363281 187.105469 L 664.378906 187.105469 C 669.617188 191.808594 674.414062 196.429688 678.769531 200.871094 C 681.683594 203.832031 684.394531 206.714844 686.914062 209.476562 C 704.167969 228.449219 712.753906 242.679688 713.550781 244.015625 C 715.550781 243.066406 717.4375 241.945312 719.125 240.679688 C 718.070312 238.890625 709.257812 224.40625 691.84375 205.261719 L 691.828125 205.246094 C 691.453125 204.824219 691.0625 204.402344 690.671875 203.980469 C 690.671875 203.980469 690.65625 203.980469 690.65625 203.960938 C 684.738281 197.503906 677.84375 190.554688 669.957031 183.398438 C 668.382812 181.964844 666.753906 180.523438 665.09375 179.070312 C 659.730469 174.386719 653.957031 169.648438 647.746094 164.933594 L 647.730469 164.933594 C 647.714844 164.914062 647.699219 164.898438 647.683594 164.882812 C 647.292969 164.589844 646.933594 164.3125 646.542969 164.019531 C 646.527344 164.007812 646.511719 164.007812 646.496094 163.992188 C 646.480469 163.992188 646.480469 163.96875 646.464844 163.96875 C 630.988281 152.324219 612.886719 140.839844 592.074219 130.769531 Z M 583.90625 134.105469 "/><path style=" stroke:none;fill-rule:nonzero;fill:#60743e;fill-opacity:1;" d="M 587.730469 165.390625 C 616.152344 156.699219 639.308594 167.617188 643.097656 169.570312 C 643.441406 169.75 643.632812 169.84375 643.648438 169.863281 C 644.15625 170.136719 644.707031 170.285156 645.261719 170.285156 C 646.382812 170.285156 647.488281 169.699219 648.089844 168.644531 C 648.773438 167.421875 648.59375 165.941406 647.746094 164.933594 L 647.730469 164.933594 C 647.714844 164.914062 647.699219 164.898438 647.683594 164.882812 C 647.472656 164.605469 647.195312 164.378906 646.871094 164.199219 C 646.820312 164.167969 646.707031 164.105469 646.542969 164.019531 C 646.527344 164.007812 646.511719 164.007812 646.496094 163.992188 C 646.480469 163.992188 646.480469 163.96875 646.464844 163.96875 C 644.578125 162.945312 636.675781 158.960938 625 156.84375 C 625 156.84375 625 156.84375 624.984375 156.828125 L 624.96875 156.828125 C 614.382812 154.890625 600.710938 154.503906 585.570312 159.222656 Z M 587.730469 165.390625 "/><path style=" stroke:none;fill-rule:nonzero;fill:#60743e;fill-opacity:1;" d="M 661.289062 184.355469 L 661.289062 184.371094 C 661.355469 184.84375 661.535156 185.285156 661.828125 185.707031 C 662.414062 186.566406 663.375 187.054688 664.363281 187.105469 L 664.511719 187.105469 C 665.148438 187.105469 665.777344 186.925781 666.347656 186.535156 C 666.527344 186.421875 668.070312 185.332031 669.957031 183.394531 C 673.390625 179.867188 677.910156 173.503906 677.195312 164.996094 C 676.882812 161.335938 675.632812 157.707031 673.453125 154.113281 C 670.414062 151.832031 667.191406 149.65625 663.792969 147.570312 C 663.597656 147.441406 663.390625 147.324219 663.191406 147.210938 C 658.511719 144.546875 653.53125 142.105469 648.21875 139.953125 C 665.535156 150.496094 670.199219 159.429688 670.707031 165.53125 C 671.226562 171.730469 667.628906 176.511719 665.09375 179.066406 C 663.742188 180.417969 662.691406 181.148438 662.652344 181.164062 C 661.582031 181.902344 661.097656 183.152344 661.289062 184.355469 Z M 661.289062 184.355469 "/><path style=" stroke:none;fill-rule:nonzero;fill:#60743e;fill-opacity:1;" d="M 626.398438 211.589844 C 627.226562 212.226562 628.085938 212.855469 628.949219 213.492188 C 629.894531 214.191406 630.867188 214.875 631.859375 215.574219 C 654.820312 199.84375 681.597656 207.667969 686.914062 209.476562 C 687.371094 209.617188 687.664062 209.734375 687.796875 209.785156 C 689.46875 210.402344 691.355469 209.574219 691.992188 207.878906 C 692.328125 206.988281 692.25 206.042969 691.84375 205.261719 L 691.828125 205.246094 C 691.582031 204.738281 691.175781 204.285156 690.671875 203.980469 C 690.671875 203.980469 690.65625 203.980469 690.65625 203.960938 C 690.480469 203.859375 690.296875 203.765625 690.105469 203.703125 C 689.957031 203.636719 685.601562 202.039062 678.769531 200.871094 C 666.074219 198.691406 644.851562 198.007812 626.398438 211.589844 Z M 626.398438 211.589844 "/><path style=" stroke:none;fill-rule:nonzero;fill:#728949;fill-opacity:1;" d="M 583.847656 134.464844 C 600.070312 141.761719 614.726562 149.945312 627.8125 158.523438 L 627.828125 158.523438 C 627.84375 158.539062 627.84375 158.539062 627.84375 158.539062 C 634.253906 162.703125 640.285156 166.96875 645.941406 171.257812 C 652.492188 176.191406 658.542969 181.148438 664.136719 186.050781 L 664.136719 186.066406 C 665.179688 186.960938 666.203125 187.875 667.210938 188.800781 L 667.226562 188.800781 C 672.460938 193.5 677.257812 198.121094 681.617188 202.5625 C 684.527344 205.523438 687.242188 208.402344 689.761719 211.167969 C 707.015625 230.136719 715.601562 244.375 716.398438 245.707031 C 718.398438 244.761719 720.285156 243.640625 721.972656 242.371094 C 720.917969 240.582031 712.105469 226.101562 694.691406 206.957031 L 694.675781 206.9375 C 694.300781 206.511719 693.910156 206.089844 693.519531 205.667969 C 693.519531 205.667969 693.503906 205.667969 693.503906 205.65625 C 687.582031 199.191406 680.691406 192.246094 672.800781 185.085938 C 671.226562 183.660156 669.601562 182.210938 667.941406 180.761719 C 662.578125 176.078125 656.804688 171.34375 650.59375 166.621094 L 650.574219 166.621094 L 650.527344 166.574219 C 650.136719 166.28125 649.777344 166.007812 649.390625 165.710938 C 649.375 165.695312 649.355469 165.695312 649.339844 165.675781 C 649.324219 165.675781 649.324219 165.664062 649.3125 165.664062 C 632.96875 153.359375 613.714844 141.242188 591.425781 130.78125 C 589.210938 130.882812 586.953125 131.042969 584.660156 131.253906 C 584.660156 131.253906 584.238281 132.382812 583.847656 134.464844 Z M 583.847656 134.464844 "/><path style=" stroke:none;fill-rule:nonzero;fill:#728949;fill-opacity:1;" d="M 586.316406 161.597656 C 586.984375 163.546875 587.765625 165.582031 588.691406 167.683594 C 617.976562 157.90625 642.070312 169.261719 645.945312 171.257812 C 646.285156 171.441406 646.480469 171.539062 646.496094 171.558594 C 647 171.835938 647.554688 171.976562 648.105469 171.976562 C 649.226562 171.976562 650.332031 171.386719 650.9375 170.335938 C 651.621094 169.117188 651.441406 167.632812 650.59375 166.621094 L 650.578125 166.621094 C 650.351562 166.332031 650.054688 166.085938 649.71875 165.894531 C 649.664062 165.859375 649.554688 165.792969 649.390625 165.710938 C 649.375 165.695312 649.359375 165.695312 649.34375 165.675781 C 647.507812 164.683594 639.585938 160.667969 627.847656 158.539062 C 627.847656 158.539062 627.847656 158.539062 627.832031 158.523438 C 616.753906 156.507812 602.285156 156.164062 586.316406 161.597656 Z M 586.316406 161.597656 "/><path style=" stroke:none;fill-rule:nonzero;fill:#728949;fill-opacity:1;" d="M 664.136719 186.046875 C 664.203125 186.519531 664.382812 186.976562 664.671875 187.398438 C 665.257812 188.257812 666.21875 188.746094 667.210938 188.796875 L 667.355469 188.796875 C 667.992188 188.796875 668.621094 188.617188 669.195312 188.230469 C 669.371094 188.117188 670.917969 187.023438 672.800781 185.085938 C 676.234375 181.554688 680.753906 175.195312 680.042969 166.691406 C 679.730469 163.027344 678.480469 159.398438 676.296875 155.800781 C 668.171875 149.75 658.835938 144.253906 648.21875 139.953125 C 667.875 151.246094 673.015625 160.792969 673.550781 167.222656 C 674.074219 173.421875 670.476562 178.207031 667.941406 180.757812 C 666.59375 182.105469 665.535156 182.84375 665.5 182.855469 C 664.425781 183.589844 663.941406 184.84375 664.136719 186.046875 Z M 664.136719 186.046875 "/><path style=" stroke:none;fill-rule:nonzero;fill:#728949;fill-opacity:1;" d="M 628.953125 213.496094 C 630.738281 214.796875 632.59375 216.113281 634.511719 217.398438 C 657.515625 201.488281 684.429688 209.359375 689.761719 211.167969 C 690.21875 211.316406 690.507812 211.429688 690.640625 211.480469 C 692.316406 212.097656 694.203125 211.265625 694.835938 209.574219 C 695.179688 208.679688 695.097656 207.734375 694.691406 206.957031 L 694.675781 206.941406 C 694.429688 206.433594 694.023438 205.976562 693.519531 205.667969 C 693.519531 205.667969 693.503906 205.667969 693.503906 205.65625 C 693.328125 205.554688 693.144531 205.460938 692.949219 205.394531 C 692.804688 205.332031 688.445312 203.734375 681.617188 202.5625 C 668.851562 200.363281 647.472656 199.699219 628.953125 213.496094 Z M 628.953125 213.496094 "/><path style=" stroke:none;fill-rule:nonzero;fill:#97b35f;fill-opacity:1;" d="M 732.472656 132.117188 L 732.472656 353.679688 C 732.472656 359.417969 727.824219 364.074219 722.082031 364.074219 C 719.207031 364.074219 716.621094 362.902344 714.734375 361.03125 C 712.863281 359.148438 711.695312 356.554688 711.695312 353.679688 L 711.695312 132.117188 C 711.695312 126.375 716.34375 121.71875 722.082031 121.71875 C 724.964844 121.71875 727.546875 122.875 729.433594 124.761719 C 731.304688 126.652344 732.472656 129.253906 732.472656 132.117188 Z M 732.472656 132.117188 "/><path style=" stroke:none;fill-rule:nonzero;fill:#728949;fill-opacity:1;" d="M 732.472656 137.667969 L 732.472656 345.039062 C 731.105469 348.507812 727.710938 350.949219 723.757812 350.949219 C 721.15625 350.949219 718.816406 349.886719 717.109375 348.195312 C 715.417969 346.5 714.359375 344.164062 714.359375 341.558594 L 714.359375 141.144531 C 714.359375 135.953125 718.570312 131.757812 723.757812 131.757812 C 726.359375 131.757812 728.699219 132.800781 730.40625 134.507812 C 731.304688 135.40625 732.019531 136.476562 732.472656 137.667969 Z M 732.472656 137.667969 "/><path style=" stroke:none;fill-rule:nonzero;fill:#5e4580;fill-opacity:1;" d="M 737.78125 426.019531 C 737.78125 427.164062 737.753906 428.308594 737.699219 429.449219 C 737.644531 430.59375 737.558594 431.734375 737.445312 432.871094 C 737.335938 434.011719 737.195312 435.144531 737.027344 436.277344 C 736.859375 437.410156 736.664062 438.535156 736.441406 439.65625 C 736.21875 440.777344 735.96875 441.894531 735.6875 443.003906 C 735.410156 444.113281 735.105469 445.21875 734.773438 446.3125 C 734.441406 447.40625 734.085938 448.492188 733.699219 449.570312 C 733.3125 450.648438 732.902344 451.714844 732.464844 452.769531 C 732.027344 453.828125 731.5625 454.875 731.074219 455.90625 C 730.585938 456.941406 730.074219 457.964844 729.535156 458.972656 C 728.996094 459.980469 728.429688 460.976562 727.84375 461.957031 C 727.253906 462.9375 726.644531 463.90625 726.007812 464.855469 C 725.375 465.808594 724.714844 466.742188 724.035156 467.660156 C 723.351562 468.582031 722.648438 469.480469 721.925781 470.367188 C 721.199219 471.25 720.453125 472.117188 719.683594 472.964844 C 718.917969 473.8125 718.128906 474.640625 717.320312 475.449219 C 716.511719 476.257812 715.683594 477.046875 714.835938 477.816406 C 713.988281 478.582031 713.125 479.332031 712.238281 480.054688 C 711.355469 480.78125 710.453125 481.484375 709.535156 482.167969 C 708.617188 482.847656 707.683594 483.507812 706.730469 484.140625 C 705.78125 484.777344 704.816406 485.390625 703.835938 485.976562 C 702.855469 486.566406 701.859375 487.128906 700.851562 487.667969 C 699.84375 488.207031 698.820312 488.722656 697.789062 489.210938 C 696.753906 489.699219 695.710938 490.164062 694.652344 490.601562 C 693.597656 491.039062 692.53125 491.453125 691.453125 491.835938 C 690.378906 492.222656 689.292969 492.582031 688.199219 492.914062 C 687.101562 493.246094 686 493.550781 684.894531 493.828125 C 683.785156 494.105469 682.667969 494.355469 681.546875 494.582031 C 680.425781 494.804688 679.300781 495 678.167969 495.167969 C 677.035156 495.335938 675.902344 495.472656 674.765625 495.585938 C 673.625 495.699219 672.488281 495.78125 671.34375 495.839844 C 670.203125 495.894531 669.058594 495.921875 667.917969 495.921875 C 666.773438 495.921875 665.628906 495.894531 664.488281 495.839844 C 663.347656 495.78125 662.207031 495.699219 661.066406 495.585938 C 659.929688 495.472656 658.796875 495.335938 657.664062 495.167969 C 656.535156 495 655.40625 494.804688 654.285156 494.578125 C 653.164062 494.355469 652.050781 494.105469 650.941406 493.828125 C 649.832031 493.550781 648.730469 493.246094 647.636719 492.914062 C 646.539062 492.582031 645.457031 492.222656 644.378906 491.835938 C 643.300781 491.453125 642.234375 491.039062 641.179688 490.601562 C 640.125 490.164062 639.078125 489.699219 638.042969 489.210938 C 637.011719 488.722656 635.988281 488.207031 634.980469 487.667969 C 633.972656 487.128906 632.976562 486.566406 631.996094 485.976562 C 631.015625 485.390625 630.050781 484.777344 629.101562 484.140625 C 628.148438 483.507812 627.214844 482.847656 626.296875 482.167969 C 625.378906 481.484375 624.476562 480.78125 623.59375 480.054688 C 622.710938 479.332031 621.84375 478.582031 620.996094 477.816406 C 620.148438 477.046875 619.320312 476.257812 618.511719 475.449219 C 617.703125 474.640625 616.917969 473.8125 616.148438 472.964844 C 615.378906 472.117188 614.632812 471.25 613.910156 470.367188 C 613.183594 469.480469 612.480469 468.582031 611.800781 467.660156 C 611.117188 466.742188 610.460938 465.808594 609.824219 464.855469 C 609.1875 463.90625 608.578125 462.9375 607.988281 461.957031 C 607.402344 460.976562 606.839844 459.980469 606.300781 458.972656 C 605.761719 457.964844 605.246094 456.941406 604.757812 455.90625 C 604.269531 454.875 603.804688 453.828125 603.367188 452.769531 C 602.929688 451.714844 602.519531 450.648438 602.132812 449.570312 C 601.75 448.492188 601.390625 447.40625 601.058594 446.3125 C 600.726562 445.21875 600.421875 444.113281 600.144531 443.003906 C 599.867188 441.894531 599.613281 440.777344 599.390625 439.65625 C 599.167969 438.535156 598.972656 437.410156 598.804688 436.277344 C 598.636719 435.144531 598.5 434.011719 598.386719 432.871094 C 598.273438 431.734375 598.191406 430.59375 598.132812 429.449219 C 598.078125 428.308594 598.050781 427.164062 598.050781 426.019531 C 598.050781 424.875 598.078125 423.730469 598.132812 422.589844 C 598.191406 421.445312 598.273438 420.304688 598.386719 419.167969 C 598.5 418.03125 598.636719 416.894531 598.804688 415.761719 C 598.972656 414.632812 599.167969 413.503906 599.390625 412.382812 C 599.613281 411.261719 599.867188 410.144531 600.144531 409.035156 C 600.421875 407.925781 600.726562 406.824219 601.058594 405.726562 C 601.390625 404.632812 601.75 403.546875 602.132812 402.46875 C 602.519531 401.394531 602.929688 400.324219 603.367188 399.269531 C 603.804688 398.210938 604.269531 397.167969 604.757812 396.132812 C 605.246094 395.097656 605.761719 394.078125 606.300781 393.066406 C 606.839844 392.058594 607.402344 391.0625 607.988281 390.082031 C 608.578125 389.101562 609.1875 388.132812 609.824219 387.183594 C 610.460938 386.230469 611.117188 385.296875 611.800781 384.378906 C 612.480469 383.460938 613.183594 382.558594 613.910156 381.671875 C 614.632812 380.789062 615.378906 379.921875 616.148438 379.074219 C 616.917969 378.226562 617.703125 377.398438 618.511719 376.589844 C 619.320312 375.78125 620.148438 374.992188 620.996094 374.222656 C 621.84375 373.457031 622.710938 372.710938 623.59375 371.984375 C 624.476562 371.257812 625.378906 370.554688 626.296875 369.871094 C 627.214844 369.191406 628.148438 368.53125 629.101562 367.898438 C 630.050781 367.261719 631.015625 366.648438 631.996094 366.0625 C 632.976562 365.472656 633.972656 364.910156 634.980469 364.371094 C 635.988281 363.832031 637.011719 363.316406 638.042969 362.828125 C 639.078125 362.339844 640.125 361.875 641.179688 361.4375 C 642.234375 361 643.300781 360.585938 644.378906 360.203125 C 645.457031 359.816406 646.539062 359.457031 647.636719 359.125 C 648.730469 358.792969 649.832031 358.488281 650.941406 358.210938 C 652.050781 357.933594 653.164062 357.683594 654.285156 357.460938 C 655.40625 357.234375 656.535156 357.039062 657.664062 356.871094 C 658.796875 356.703125 659.929688 356.566406 661.066406 356.453125 C 662.207031 356.339844 663.347656 356.257812 664.488281 356.199219 C 665.628906 356.144531 666.773438 356.117188 667.917969 356.117188 C 669.058594 356.117188 670.203125 356.144531 671.34375 356.199219 C 672.488281 356.257812 673.625 356.339844 674.765625 356.453125 C 675.902344 356.566406 677.035156 356.703125 678.167969 356.871094 C 679.300781 357.039062 680.425781 357.234375 681.546875 357.460938 C 682.667969 357.683594 683.785156 357.933594 684.894531 358.210938 C 686 358.488281 687.101562 358.792969 688.199219 359.125 C 689.292969 359.457031 690.378906 359.816406 691.453125 360.203125 C 692.53125 360.585938 693.597656 361 694.652344 361.4375 C 695.710938 361.875 696.753906 362.339844 697.789062 362.828125 C 698.820312 363.316406 699.84375 363.832031 700.851562 364.371094 C 701.859375 364.910156 702.855469 365.472656 703.835938 366.0625 C 704.816406 366.648438 705.78125 367.261719 706.730469 367.898438 C 707.683594 368.53125 708.617188 369.191406 709.535156 369.871094 C 710.453125 370.554688 711.355469 371.257812 712.238281 371.984375 C 713.125 372.710938 713.988281 373.457031 714.835938 374.222656 C 715.683594 374.992188 716.511719 375.78125 717.320312 376.589844 C 718.128906 377.398438 718.917969 378.226562 719.683594 379.074219 C 720.453125 379.921875 721.199219 380.789062 721.925781 381.671875 C 722.648438 382.558594 723.351562 383.460938 724.035156 384.378906 C 724.714844 385.296875 725.375 386.230469 726.007812 387.183594 C 726.644531 388.132812 727.253906 389.101562 727.84375 390.082031 C 728.429688 391.0625 728.996094 392.058594 729.535156 393.066406 C 730.074219 394.078125 730.585938 395.097656 731.074219 396.132812 C 731.5625 397.167969 732.027344 398.210938 732.464844 399.269531 C 732.902344 400.324219 733.3125 401.394531 733.699219 402.46875 C 734.085938 403.546875 734.441406 404.632812 734.773438 405.726562 C 735.105469 406.824219 735.410156 407.925781 735.6875 409.035156 C 735.96875 410.144531 736.21875 411.261719 736.441406 412.382812 C 736.664062 413.503906 736.859375 414.632812 737.027344 415.761719 C 737.195312 416.894531 737.335938 418.03125 737.445312 419.167969 C 737.558594 420.304688 737.644531 421.445312 737.699219 422.589844 C 737.753906 423.730469 737.78125 424.875 737.78125 426.019531 Z M 737.78125 426.019531 "/><path style=" stroke:none;fill-rule:nonzero;fill:#734d9a;fill-opacity:1;" d="M 725 424.113281 C 725 458.4375 697.203125 486.246094 662.898438 486.246094 C 629.042969 486.246094 601.503906 459.132812 600.820312 425.40625 C 600.796875 424.980469 600.796875 424.550781 600.796875 424.113281 C 600.796875 400.632812 613.816406 380.191406 633.035156 369.632812 C 641.894531 364.753906 652.078125 361.980469 662.898438 361.980469 C 697.203125 361.984375 725 389.804688 725 424.113281 Z M 725 424.113281 "/><path style=" stroke:none;fill-rule:nonzero;fill:#8567aa;fill-opacity:1;" d="M 652.738281 399.484375 C 652.738281 417.410156 638.21875 431.921875 620.304688 431.921875 C 612.996094 431.921875 606.242188 429.507812 600.820312 425.410156 C 600.796875 424.984375 600.796875 424.554688 600.796875 424.113281 C 600.796875 400.632812 613.816406 380.191406 633.035156 369.632812 C 634.355469 370.1875 635.617188 370.832031 636.828125 371.558594 C 646.351562 377.207031 652.738281 387.609375 652.738281 399.484375 Z M 652.738281 399.484375 "/><path style=" stroke:none;fill-rule:nonzero;fill:#5e4580;fill-opacity:1;" d="M 720.949219 348.316406 C 720.949219 386.925781 752.230469 418.222656 790.816406 418.222656 C 829.402344 418.222656 860.683594 386.925781 860.683594 348.316406 C 860.683594 309.714844 829.402344 278.417969 790.816406 278.417969 C 752.230469 278.417969 720.949219 309.714844 720.949219 348.316406 Z M 720.949219 348.316406 "/><path style=" stroke:none;fill-rule:nonzero;fill:#734d9a;fill-opacity:1;" d="M 733.734375 346.414062 C 733.734375 380.730469 761.53125 408.546875 795.835938 408.546875 C 829.691406 408.546875 857.230469 381.429688 857.917969 347.703125 C 857.9375 347.28125 857.9375 346.851562 857.9375 346.414062 C 857.9375 322.933594 844.914062 302.492188 825.699219 291.929688 C 816.839844 287.050781 806.660156 284.277344 795.835938 284.277344 C 761.527344 284.277344 733.734375 312.105469 733.734375 346.414062 Z M 733.734375 346.414062 "/><path style=" stroke:none;fill-rule:nonzero;fill:#8567aa;fill-opacity:1;" d="M 805.992188 321.777344 C 805.992188 339.707031 820.511719 354.222656 838.429688 354.222656 C 845.738281 354.222656 852.492188 351.804688 857.914062 347.703125 C 857.933594 347.28125 857.933594 346.851562 857.933594 346.414062 C 857.933594 322.933594 844.914062 302.492188 825.699219 291.929688 C 824.375 292.484375 823.117188 293.132812 821.902344 293.859375 C 812.382812 299.503906 805.992188 309.902344 805.992188 321.777344 Z M 805.992188 321.777344 "/><g clip-rule="nonzero" clip-path="url(#4c6ccae9cf)"><path style=" stroke:none;fill-rule:nonzero;fill:#5e4580;fill-opacity:1;" d="M 783.996094 486.238281 C 783.996094 487.382812 783.96875 488.523438 783.910156 489.667969 C 783.855469 490.808594 783.773438 491.949219 783.660156 493.089844 C 783.546875 494.226562 783.40625 495.363281 783.238281 496.496094 C 783.070312 497.625 782.875 498.753906 782.652344 499.875 C 782.429688 500.996094 782.179688 502.113281 781.902344 503.222656 C 781.625 504.332031 781.320312 505.433594 780.988281 506.53125 C 780.65625 507.625 780.296875 508.710938 779.910156 509.789062 C 779.527344 510.863281 779.117188 511.933594 778.675781 512.988281 C 778.238281 514.046875 777.777344 515.089844 777.289062 516.125 C 776.800781 517.160156 776.285156 518.183594 775.746094 519.191406 C 775.207031 520.199219 774.644531 521.195312 774.054688 522.175781 C 773.46875 523.15625 772.855469 524.125 772.222656 525.074219 C 771.585938 526.027344 770.925781 526.960938 770.246094 527.878906 C 769.566406 528.800781 768.863281 529.699219 768.136719 530.585938 C 767.410156 531.46875 766.664062 532.335938 765.898438 533.183594 C 765.128906 534.03125 764.339844 534.859375 763.53125 535.667969 C 762.722656 536.476562 761.894531 537.265625 761.046875 538.035156 C 760.203125 538.800781 759.335938 539.550781 758.453125 540.273438 C 757.566406 541 756.667969 541.703125 755.75 542.386719 C 754.828125 543.066406 753.894531 543.726562 752.945312 544.363281 C 751.992188 544.996094 751.027344 545.609375 750.046875 546.195312 C 749.066406 546.785156 748.070312 547.347656 747.0625 547.886719 C 746.054688 548.425781 745.035156 548.941406 744 549.429688 C 742.964844 549.921875 741.921875 550.382812 740.863281 550.820312 C 739.808594 551.257812 738.742188 551.671875 737.664062 552.054688 C 736.589844 552.441406 735.503906 552.800781 734.410156 553.132812 C 733.316406 553.464844 732.214844 553.769531 731.105469 554.046875 C 729.996094 554.324219 728.878906 554.578125 727.757812 554.800781 C 726.636719 555.023438 725.511719 555.21875 724.378906 555.386719 C 723.25 555.554688 722.113281 555.695312 720.976562 555.804688 C 719.839844 555.917969 718.699219 556.003906 717.554688 556.058594 C 716.414062 556.113281 715.269531 556.144531 714.128906 556.144531 C 712.984375 556.144531 711.839844 556.113281 710.699219 556.058594 C 709.558594 556.003906 708.417969 555.917969 707.28125 555.804688 C 706.140625 555.695312 705.007812 555.554688 703.875 555.386719 C 702.746094 555.21875 701.617188 555.023438 700.496094 554.800781 C 699.375 554.578125 698.261719 554.324219 697.152344 554.046875 C 696.042969 553.769531 694.941406 553.464844 693.847656 553.132812 C 692.75 552.800781 691.667969 552.441406 690.589844 552.054688 C 689.511719 551.671875 688.445312 551.257812 687.390625 550.820312 C 686.332031 550.382812 685.289062 549.921875 684.253906 549.429688 C 683.222656 548.941406 682.199219 548.425781 681.191406 547.886719 C 680.183594 547.347656 679.1875 546.785156 678.207031 546.195312 C 677.226562 545.609375 676.261719 544.996094 675.3125 544.363281 C 674.359375 543.726562 673.425781 543.066406 672.507812 542.386719 C 671.589844 541.703125 670.6875 541 669.804688 540.273438 C 668.917969 539.550781 668.054688 538.800781 667.207031 538.035156 C 666.359375 537.265625 665.53125 536.476562 664.722656 535.667969 C 663.914062 534.859375 663.125 534.03125 662.359375 533.183594 C 661.589844 532.335938 660.84375 531.46875 660.117188 530.585938 C 659.394531 529.699219 658.691406 528.800781 658.007812 527.878906 C 657.328125 526.960938 656.667969 526.027344 656.035156 525.074219 C 655.398438 524.125 654.789062 523.15625 654.199219 522.175781 C 653.613281 521.195312 653.046875 520.199219 652.507812 519.191406 C 651.96875 518.179688 651.457031 517.160156 650.96875 516.125 C 650.476562 515.089844 650.015625 514.046875 649.578125 512.988281 C 649.140625 511.933594 648.730469 510.863281 648.34375 509.789062 C 647.957031 508.710938 647.601562 507.625 647.269531 506.53125 C 646.9375 505.433594 646.632812 504.332031 646.351562 503.222656 C 646.074219 502.113281 645.824219 500.996094 645.601562 499.875 C 645.378906 498.753906 645.183594 497.625 645.015625 496.496094 C 644.847656 495.363281 644.707031 494.226562 644.59375 493.089844 C 644.484375 491.949219 644.398438 490.808594 644.34375 489.667969 C 644.289062 488.523438 644.257812 487.382812 644.257812 486.238281 C 644.257812 485.09375 644.289062 483.949219 644.34375 482.808594 C 644.398438 481.664062 644.484375 480.523438 644.59375 479.386719 C 644.707031 478.246094 644.847656 477.113281 645.015625 475.980469 C 645.183594 474.847656 645.378906 473.722656 645.601562 472.601562 C 645.824219 471.476562 646.074219 470.363281 646.351562 469.25 C 646.632812 468.140625 646.9375 467.039062 647.269531 465.945312 C 647.601562 464.851562 647.957031 463.765625 648.34375 462.6875 C 648.730469 461.609375 649.140625 460.542969 649.578125 459.484375 C 650.015625 458.429688 650.476562 457.382812 650.96875 456.347656 C 651.457031 455.316406 651.96875 454.292969 652.507812 453.285156 C 653.046875 452.273438 653.613281 451.28125 654.199219 450.300781 C 654.789062 449.316406 655.398438 448.351562 656.035156 447.398438 C 656.667969 446.449219 657.328125 445.515625 658.007812 444.59375 C 658.691406 443.675781 659.394531 442.773438 660.117188 441.890625 C 660.84375 441.003906 661.589844 440.140625 662.359375 439.292969 C 663.125 438.445312 663.914062 437.617188 664.722656 436.808594 C 665.53125 435.996094 666.359375 435.210938 667.207031 434.441406 C 668.054688 433.671875 668.917969 432.925781 669.804688 432.199219 C 670.6875 431.472656 671.589844 430.769531 672.507812 430.089844 C 673.425781 429.40625 674.359375 428.75 675.3125 428.113281 C 676.261719 427.476562 677.226562 426.867188 678.207031 426.277344 C 679.1875 425.691406 680.183594 425.125 681.191406 424.585938 C 682.199219 424.046875 683.222656 423.53125 684.253906 423.042969 C 685.289062 422.554688 686.332031 422.089844 687.390625 421.652344 C 688.445312 421.214844 689.511719 420.804688 690.589844 420.417969 C 691.667969 420.03125 692.75 419.675781 693.847656 419.34375 C 694.941406 419.011719 696.042969 418.707031 697.152344 418.425781 C 698.261719 418.148438 699.375 417.898438 700.496094 417.675781 C 701.617188 417.453125 702.746094 417.257812 703.875 417.089844 C 705.007812 416.921875 706.140625 416.78125 707.28125 416.667969 C 708.417969 416.558594 709.558594 416.472656 710.699219 416.417969 C 711.839844 416.359375 712.984375 416.332031 714.128906 416.332031 C 715.269531 416.332031 716.414062 416.359375 717.554688 416.417969 C 718.699219 416.472656 719.839844 416.558594 720.976562 416.667969 C 722.113281 416.78125 723.25 416.921875 724.378906 417.089844 C 725.511719 417.257812 726.636719 417.453125 727.757812 417.675781 C 728.878906 417.898438 729.996094 418.148438 731.105469 418.425781 C 732.214844 418.707031 733.316406 419.011719 734.410156 419.34375 C 735.503906 419.675781 736.589844 420.035156 737.664062 420.417969 C 738.742188 420.804688 739.808594 421.214844 740.863281 421.652344 C 741.921875 422.089844 742.964844 422.554688 744 423.042969 C 745.035156 423.53125 746.054688 424.046875 747.0625 424.585938 C 748.070312 425.125 749.066406 425.691406 750.046875 426.277344 C 751.027344 426.867188 751.992188 427.476562 752.945312 428.113281 C 753.894531 428.75 754.828125 429.40625 755.75 430.089844 C 756.667969 430.769531 757.566406 431.472656 758.453125 432.199219 C 759.335938 432.925781 760.203125 433.671875 761.046875 434.441406 C 761.894531 435.210938 762.722656 435.996094 763.53125 436.808594 C 764.339844 437.617188 765.128906 438.445312 765.898438 439.292969 C 766.664062 440.140625 767.410156 441.003906 768.136719 441.890625 C 768.863281 442.773438 769.566406 443.675781 770.246094 444.59375 C 770.925781 445.515625 771.585938 446.449219 772.222656 447.398438 C 772.855469 448.351562 773.46875 449.316406 774.054688 450.300781 C 774.644531 451.28125 775.207031 452.273438 775.746094 453.285156 C 776.285156 454.292969 776.800781 455.316406 777.289062 456.347656 C 777.777344 457.382812 778.238281 458.429688 778.675781 459.484375 C 779.117188 460.542969 779.527344 461.609375 779.910156 462.6875 C 780.296875 463.765625 780.65625 464.851562 780.988281 465.945312 C 781.320312 467.039062 781.625 468.140625 781.902344 469.25 C 782.179688 470.363281 782.429688 471.476562 782.652344 472.601562 C 782.875 473.722656 783.070312 474.847656 783.238281 475.980469 C 783.40625 477.113281 783.546875 478.246094 783.660156 479.386719 C 783.773438 480.523438 783.855469 481.664062 783.910156 482.808594 C 783.96875 483.949219 783.996094 485.09375 783.996094 486.238281 Z M 783.996094 486.238281 "/></g><path style=" stroke:none;fill-rule:nonzero;fill:#734d9a;fill-opacity:1;" d="M 771.214844 484.332031 C 771.214844 518.65625 743.417969 546.46875 709.117188 546.46875 C 675.257812 546.46875 647.722656 519.347656 647.035156 485.621094 C 647.015625 485.199219 647.015625 484.769531 647.015625 484.332031 C 647.015625 460.855469 660.03125 440.414062 679.246094 429.851562 C 688.109375 424.972656 698.285156 422.203125 709.113281 422.203125 C 743.417969 422.203125 771.214844 450.023438 771.214844 484.332031 Z M 771.214844 484.332031 "/><path style=" stroke:none;fill-rule:nonzero;fill:#8567aa;fill-opacity:1;" d="M 698.953125 459.699219 C 698.953125 477.625 684.433594 492.144531 666.519531 492.144531 C 659.210938 492.144531 652.457031 489.730469 647.035156 485.625 C 647.015625 485.203125 647.015625 484.773438 647.015625 484.332031 C 647.015625 460.855469 660.03125 440.414062 679.246094 429.851562 C 680.570312 430.40625 681.832031 431.054688 683.042969 431.78125 C 692.570312 437.421875 698.953125 447.824219 698.953125 459.699219 Z M 698.953125 459.699219 "/><path style=" stroke:none;fill-rule:nonzero;fill:#5e4580;fill-opacity:1;" d="M 841.082031 424.117188 C 841.082031 425.261719 841.054688 426.40625 841 427.546875 C 840.941406 428.691406 840.859375 429.832031 840.746094 430.96875 C 840.632812 432.109375 840.496094 433.242188 840.328125 434.375 C 840.160156 435.507812 839.964844 436.632812 839.742188 437.753906 C 839.515625 438.878906 839.265625 439.992188 838.988281 441.101562 C 838.710938 442.210938 838.40625 443.316406 838.074219 444.410156 C 837.742188 445.503906 837.382812 446.589844 837 447.667969 C 836.613281 448.746094 836.203125 449.8125 835.765625 450.867188 C 835.328125 451.925781 834.863281 452.972656 834.375 454.003906 C 833.886719 455.039062 833.371094 456.0625 832.832031 457.070312 C 832.292969 458.078125 831.730469 459.074219 831.144531 460.054688 C 830.554688 461.035156 829.945312 462.003906 829.308594 462.953125 C 828.671875 463.90625 828.015625 464.839844 827.332031 465.757812 C 826.652344 466.679688 825.949219 467.578125 825.222656 468.464844 C 824.5 469.347656 823.75 470.214844 822.984375 471.0625 C 822.214844 471.910156 821.429688 472.738281 820.621094 473.546875 C 819.8125 474.355469 818.984375 475.144531 818.136719 475.914062 C 817.289062 476.679688 816.421875 477.429688 815.539062 478.152344 C 814.65625 478.878906 813.753906 479.582031 812.835938 480.265625 C 811.917969 480.945312 810.984375 481.605469 810.03125 482.242188 C 809.082031 482.875 808.117188 483.488281 807.136719 484.074219 C 806.152344 484.664062 805.160156 485.226562 804.152344 485.765625 C 803.144531 486.304688 802.121094 486.820312 801.089844 487.308594 C 800.054688 487.796875 799.007812 488.261719 797.953125 488.699219 C 796.898438 489.136719 795.832031 489.550781 794.753906 489.933594 C 793.675781 490.320312 792.589844 490.679688 791.496094 491.011719 C 790.402344 491.34375 789.300781 491.648438 788.191406 491.925781 C 787.082031 492.203125 785.96875 492.453125 784.847656 492.679688 C 783.726562 492.902344 782.597656 493.097656 781.46875 493.265625 C 780.335938 493.433594 779.203125 493.574219 778.0625 493.683594 C 776.925781 493.796875 775.785156 493.882812 774.644531 493.9375 C 773.503906 493.992188 772.359375 494.019531 771.214844 494.019531 C 770.074219 494.019531 768.929688 493.992188 767.789062 493.9375 C 766.644531 493.882812 765.507812 493.796875 764.367188 493.683594 C 763.230469 493.574219 762.097656 493.433594 760.964844 493.265625 C 759.832031 493.097656 758.707031 492.902344 757.585938 492.679688 C 756.464844 492.453125 755.347656 492.203125 754.238281 491.925781 C 753.128906 491.648438 752.027344 491.34375 750.933594 491.011719 C 749.839844 490.679688 748.753906 490.320312 747.679688 489.933594 C 746.601562 489.550781 745.535156 489.136719 744.480469 488.699219 C 743.421875 488.261719 742.378906 487.796875 741.34375 487.308594 C 740.3125 486.820312 739.289062 486.304688 738.28125 485.765625 C 737.273438 485.226562 736.277344 484.664062 735.296875 484.074219 C 734.316406 483.488281 733.351562 482.875 732.398438 482.242188 C 731.449219 481.605469 730.515625 480.945312 729.597656 480.265625 C 728.679688 479.582031 727.777344 478.878906 726.894531 478.152344 C 726.007812 477.429688 725.144531 476.679688 724.296875 475.914062 C 723.449219 475.144531 722.621094 474.355469 721.8125 473.546875 C 721.003906 472.738281 720.214844 471.910156 719.449219 471.0625 C 718.679688 470.214844 717.933594 469.347656 717.207031 468.464844 C 716.484375 467.578125 715.78125 466.679688 715.097656 465.757812 C 714.417969 464.839844 713.757812 463.90625 713.125 462.953125 C 712.488281 462.003906 711.878906 461.035156 711.289062 460.054688 C 710.703125 459.074219 710.136719 458.078125 709.597656 457.070312 C 709.058594 456.0625 708.546875 455.039062 708.058594 454.003906 C 707.570312 452.972656 707.105469 451.925781 706.667969 450.867188 C 706.230469 449.8125 705.820312 448.746094 705.433594 447.667969 C 705.046875 446.589844 704.691406 445.503906 704.359375 444.410156 C 704.027344 443.316406 703.722656 442.210938 703.441406 441.101562 C 703.164062 439.992188 702.914062 438.878906 702.691406 437.753906 C 702.46875 436.632812 702.273438 435.507812 702.105469 434.375 C 701.9375 433.242188 701.796875 432.109375 701.6875 430.96875 C 701.574219 429.832031 701.488281 428.691406 701.433594 427.546875 C 701.378906 426.40625 701.347656 425.261719 701.347656 424.117188 C 701.347656 422.972656 701.378906 421.832031 701.433594 420.6875 C 701.488281 419.546875 701.574219 418.40625 701.6875 417.265625 C 701.796875 416.128906 701.9375 414.992188 702.105469 413.859375 C 702.273438 412.730469 702.46875 411.601562 702.691406 410.480469 C 702.914062 409.359375 703.164062 408.242188 703.441406 407.132812 C 703.722656 406.023438 704.027344 404.921875 704.359375 403.824219 C 704.691406 402.730469 705.046875 401.644531 705.433594 400.566406 C 705.820312 399.492188 706.230469 398.421875 706.667969 397.367188 C 707.105469 396.308594 707.570312 395.265625 708.058594 394.230469 C 708.546875 393.195312 709.058594 392.175781 709.597656 391.164062 C 710.136719 390.15625 710.703125 389.160156 711.289062 388.179688 C 711.878906 387.199219 712.488281 386.234375 713.125 385.28125 C 713.757812 384.328125 714.417969 383.394531 715.097656 382.476562 C 715.78125 381.558594 716.484375 380.65625 717.207031 379.769531 C 717.933594 378.886719 718.679688 378.019531 719.449219 377.171875 C 720.214844 376.324219 721.003906 375.496094 721.8125 374.6875 C 722.621094 373.878906 723.449219 373.089844 724.296875 372.324219 C 725.144531 371.554688 726.007812 370.808594 726.894531 370.082031 C 727.777344 369.355469 728.679688 368.652344 729.597656 367.96875 C 730.515625 367.289062 731.449219 366.628906 732.398438 365.996094 C 733.351562 365.359375 734.316406 364.746094 735.296875 364.160156 C 736.277344 363.570312 737.273438 363.007812 738.28125 362.46875 C 739.289062 361.929688 740.3125 361.414062 741.34375 360.925781 C 742.378906 360.4375 743.421875 359.972656 744.480469 359.535156 C 745.535156 359.097656 746.601562 358.6875 747.679688 358.300781 C 748.753906 357.914062 749.839844 357.554688 750.933594 357.222656 C 752.027344 356.890625 753.128906 356.585938 754.238281 356.308594 C 755.347656 356.03125 756.464844 355.78125 757.585938 355.558594 C 758.707031 355.335938 759.832031 355.136719 760.964844 354.96875 C 762.097656 354.804688 763.230469 354.664062 764.367188 354.550781 C 765.507812 354.4375 766.644531 354.355469 767.789062 354.296875 C 768.929688 354.242188 770.074219 354.214844 771.214844 354.214844 C 772.359375 354.214844 773.503906 354.242188 774.644531 354.296875 C 775.785156 354.355469 776.925781 354.4375 778.0625 354.550781 C 779.203125 354.664062 780.335938 354.804688 781.46875 354.96875 C 782.597656 355.136719 783.726562 355.335938 784.847656 355.558594 C 785.96875 355.78125 787.082031 356.03125 788.191406 356.308594 C 789.300781 356.585938 790.402344 356.890625 791.496094 357.222656 C 792.589844 357.554688 793.675781 357.914062 794.753906 358.300781 C 795.832031 358.6875 796.898438 359.097656 797.953125 359.535156 C 799.007812 359.972656 800.054688 360.4375 801.089844 360.925781 C 802.121094 361.414062 803.144531 361.929688 804.152344 362.46875 C 805.160156 363.007812 806.152344 363.570312 807.136719 364.160156 C 808.117188 364.746094 809.082031 365.359375 810.03125 365.996094 C 810.984375 366.628906 811.917969 367.289062 812.835938 367.96875 C 813.753906 368.652344 814.65625 369.355469 815.539062 370.082031 C 816.421875 370.808594 817.289062 371.554688 818.136719 372.324219 C 818.984375 373.089844 819.8125 373.878906 820.621094 374.6875 C 821.429688 375.496094 822.214844 376.324219 822.984375 377.171875 C 823.753906 378.019531 824.5 378.886719 825.222656 379.769531 C 825.949219 380.65625 826.652344 381.558594 827.332031 382.476562 C 828.015625 383.394531 828.671875 384.328125 829.308594 385.28125 C 829.945312 386.234375 830.554688 387.199219 831.144531 388.179688 C 831.730469 389.160156 832.292969 390.15625 832.832031 391.164062 C 833.371094 392.175781 833.886719 393.195312 834.375 394.230469 C 834.863281 395.265625 835.328125 396.308594 835.765625 397.367188 C 836.203125 398.421875 836.613281 399.492188 837 400.566406 C 837.382812 401.644531 837.742188 402.730469 838.074219 403.824219 C 838.40625 404.921875 838.710938 406.023438 838.988281 407.132812 C 839.265625 408.242188 839.515625 409.359375 839.742188 410.480469 C 839.964844 411.601562 840.160156 412.730469 840.328125 413.859375 C 840.496094 414.992188 840.632812 416.128906 840.746094 417.265625 C 840.859375 418.40625 840.941406 419.546875 841 420.6875 C 841.054688 421.832031 841.082031 422.972656 841.082031 424.117188 Z M 841.082031 424.117188 "/><path style=" stroke:none;fill-rule:nonzero;fill:#734d9a;fill-opacity:1;" d="M 828.300781 422.207031 C 828.300781 456.53125 800.5 484.34375 766.195312 484.34375 C 732.34375 484.34375 704.800781 457.226562 704.117188 423.5 C 704.097656 423.074219 704.097656 422.644531 704.097656 422.207031 C 704.097656 398.730469 717.117188 378.289062 736.335938 367.730469 C 745.195312 362.847656 755.375 360.078125 766.195312 360.078125 C 800.5 360.078125 828.300781 387.898438 828.300781 422.207031 Z M 828.300781 422.207031 "/><path style=" stroke:none;fill-rule:nonzero;fill:#8567aa;fill-opacity:1;" d="M 756.039062 397.578125 C 756.039062 415.503906 741.519531 430.019531 723.605469 430.019531 C 716.292969 430.019531 709.539062 427.605469 704.117188 423.503906 C 704.097656 423.078125 704.097656 422.648438 704.097656 422.207031 C 704.097656 398.730469 717.117188 378.289062 736.335938 367.730469 C 737.65625 368.285156 738.917969 368.929688 740.125 369.65625 C 749.652344 375.300781 756.039062 385.703125 756.039062 397.578125 Z M 756.039062 397.578125 "/><path style=" stroke:none;fill-rule:nonzero;fill:#5e4580;fill-opacity:1;" d="M 790.816406 332.742188 C 790.816406 371.351562 759.539062 402.644531 720.949219 402.644531 C 682.367188 402.644531 651.085938 371.351562 651.085938 332.742188 C 651.085938 294.132812 682.363281 262.835938 720.949219 262.835938 C 759.535156 262.835938 790.816406 294.132812 790.816406 332.742188 Z M 790.816406 332.742188 "/><path style=" stroke:none;fill-rule:nonzero;fill:#734d9a;fill-opacity:1;" d="M 778.035156 330.832031 C 778.035156 365.15625 750.234375 392.96875 715.933594 392.96875 C 682.078125 392.96875 654.539062 365.851562 653.851562 332.125 C 653.835938 331.699219 653.835938 331.269531 653.835938 330.832031 C 653.835938 307.351562 666.855469 286.914062 686.070312 276.351562 C 694.929688 271.472656 705.109375 268.703125 715.933594 268.703125 C 750.234375 268.703125 778.035156 296.523438 778.035156 330.832031 Z M 778.035156 330.832031 "/><path style=" stroke:none;fill-rule:nonzero;fill:#8567aa;fill-opacity:1;" d="M 705.773438 306.203125 C 705.773438 324.125 691.253906 338.644531 673.339844 338.644531 C 666.027344 338.644531 659.277344 336.230469 653.851562 332.128906 C 653.832031 331.699219 653.832031 331.269531 653.832031 330.832031 C 653.832031 307.351562 666.851562 286.914062 686.070312 276.351562 C 687.390625 276.910156 688.652344 277.554688 689.859375 278.277344 C 699.386719 283.925781 705.773438 294.328125 705.773438 306.203125 Z M 705.773438 306.203125 "/></g></svg>