<svg xmlns="http://www.w3.org/2000/svg" xmlns:xlink="http://www.w3.org/1999/xlink" width="1920" zoomAndPan="magnify" viewBox="0 0 1440 809.999993" height="1080" preserveAspectRatio="xMidYMid meet" version="1.2"><defs><clipPath id="68d6496f2b"><path d="M 720 119.945312 L 913 119.945312 L 913 223 L 720 223 Z M 720 119.945312 "/></clipPath></defs><g id="aa73788f29"><path style=" stroke:none;fill-rule:nonzero;fill:#e20200;fill-opacity:1;" d="M 625.234375 187.769531 L 612.25 193.875 C 573.113281 212.046875 546.648438 229.410156 532.859375 245.96875 C 527.078125 252.375 522.117188 259.449219 517.980469 267.191406 L 512.527344 279.417969 C 509.363281 287.957031 507.261719 297.347656 506.226562 307.59375 C 504.492188 376.054688 522.980469 445.589844 561.691406 516.203125 C 578.769531 543.621094 595.652344 563.421875 612.339844 575.605469 L 624.878906 585.691406 C 643.925781 595.597656 659.015625 602.046875 670.148438 605.03125 C 689.164062 610.632812 709.785156 606.121094 732.011719 591.488281 L 759.367188 590.757812 C 775.472656 592.519531 788.914062 593.050781 799.683594 592.347656 C 812.589844 591.300781 824.125 588.386719 834.285156 583.609375 C 849.769531 576.519531 862.539062 565.648438 872.59375 551.003906 C 881.96875 538.421875 895.566406 511.632812 913.390625 470.636719 L 930.832031 377.214844 C 934.171875 356.03125 935.703125 338.929688 935.417969 325.921875 C 936.035156 299.371094 928.992188 270.835938 914.292969 240.320312 C 905.191406 222.730469 892.175781 208.453125 875.246094 197.488281 C 867.484375 191.398438 850.664062 185.65625 824.785156 180.265625 C 805.914062 176.855469 777.027344 174.886719 738.113281 174.363281 L 722.058594 180.691406 L 673.355469 177.96875 L 625.234375 187.769531 "/><g clip-rule="nonzero" clip-path="url(#68d6496f2b)"><path style=" stroke:none;fill-rule:nonzero;fill:#4b6829;fill-opacity:1;" d="M 720.664062 218.808594 L 722.320312 222.238281 L 745.753906 199.183594 C 758.984375 202.929688 772.1875 206.101562 785.359375 208.703125 C 794.136719 210.367188 802.882812 211.355469 811.59375 211.667969 C 829.386719 212.015625 846.171875 208.96875 861.941406 202.535156 C 877.699219 196.085938 889.433594 188.621094 897.152344 180.144531 C 903.480469 174.074219 908.632812 163.535156 912.601562 148.53125 C 892.527344 131.578125 875.675781 122.363281 862.054688 120.890625 C 858.683594 120.347656 855.183594 120.035156 851.558594 119.945312 L 846.039062 119.953125 C 842.300781 120.0625 838.46875 120.335938 834.542969 120.773438 C 824.78125 121.78125 810.394531 124.464844 791.386719 128.820312 C 770.929688 141.710938 758.234375 151.777344 753.304688 159.019531 C 747.425781 166.117188 743.910156 177.5625 742.75 193.351562 L 720.664062 218.808594 "/></g><path style=" stroke:none;fill-rule:nonzero;fill:#4b6829;fill-opacity:1;" d="M 714.863281 239.621094 L 713.195312 234.320312 C 706.175781 210.761719 699.019531 194.109375 691.722656 184.363281 C 685.414062 175.234375 673.550781 167.992188 656.136719 162.640625 L 669.515625 122.351562 C 691.402344 140.6875 705.332031 153.914062 711.304688 162.039062 C 716.277344 168.425781 719.746094 175.472656 721.707031 183.175781 C 722.601562 185.902344 723.578125 191.628906 724.636719 200.359375 C 725.101562 204.078125 725.59375 210.996094 726.105469 221.105469 L 726.773438 238.960938 L 714.863281 239.621094 "/><path style=" stroke:none;fill-rule:nonzero;fill:#f46766;fill-opacity:0.584;" d="M 632.160156 230.347656 L 632.152344 230.203125 C 631.820312 227.722656 635.851562 227.140625 644.253906 228.453125 C 648.585938 229.015625 652.894531 229.734375 657.183594 230.605469 C 683.964844 236.480469 699.492188 239.707031 703.765625 240.28125 C 708.734375 241.222656 714.480469 241.367188 721.007812 240.71875 C 727.140625 240.015625 733.207031 238.820312 739.203125 237.128906 C 745.429688 235.527344 751.070312 233.65625 756.121094 231.515625 C 757.75 231.085938 766.4375 226.542969 782.191406 217.886719 L 783.664062 216.574219 L 784.070312 214.355469 C 784.367188 214.101562 784.898438 213.871094 785.664062 213.664062 C 785.824219 213.601562 786.34375 213.523438 787.21875 213.429688 L 797.515625 212.847656 C 800.359375 212.703125 803.207031 212.636719 806.054688 212.648438 C 811.421875 212.554688 814.222656 213.003906 814.457031 214.003906 C 814.296875 214.910156 813.828125 215.589844 813.050781 216.039062 C 809.753906 218.070312 806.875 219.699219 804.417969 220.929688 C 799.628906 223.363281 796.976562 224.660156 796.46875 224.816406 C 795.699219 225.226562 790.066406 227.554688 779.570312 231.800781 L 774.8125 233.945312 C 773.09375 234.628906 768.992188 236.972656 762.503906 240.984375 C 761.167969 241.667969 759.71875 242.289062 758.15625 242.851562 C 754.4375 244.515625 745.773438 246.613281 732.167969 249.140625 C 723.792969 250.839844 715.316406 252.042969 706.738281 252.753906 C 689.015625 254.28125 671.503906 252.84375 654.203125 248.445312 C 643.160156 245.089844 635.8125 239.058594 632.160156 230.347656 "/><path style=" stroke:none;fill-rule:nonzero;fill:#7c2323;fill-opacity:0.894;" d="M 644.347656 227.125 L 647.457031 228.8125 C 658.710938 235.140625 669.070312 239.269531 678.53125 241.207031 C 686.988281 243.085938 697.214844 243.535156 709.210938 242.554688 C 717.066406 241.886719 724.835938 240.8125 732.515625 239.332031 C 736.316406 238.605469 739.957031 237.824219 743.449219 236.992188 C 745.519531 236.59375 750.1875 235.296875 757.457031 233.101562 C 760.132812 232.222656 762.507812 231.355469 764.578125 230.492188 C 765.90625 230.054688 768.472656 228.777344 772.269531 226.65625 C 775.804688 224.539062 779.0625 221.621094 782.039062 217.894531 L 774.972656 219.585938 C 766.472656 224.066406 759.078125 227.113281 752.785156 228.726562 C 746.855469 230.453125 735.921875 232.417969 719.984375 234.621094 L 644.347656 227.125 "/><path style=" stroke:none;fill-rule:nonzero;fill:#f46766;fill-opacity:0.702;" d="M 855.242188 217.558594 L 857.734375 220.496094 C 864.585938 227.910156 870.632812 237.007812 875.878906 247.78125 C 881.191406 261.058594 884.28125 273.691406 885.15625 285.679688 C 887.480469 308.082031 888.070312 337.148438 886.925781 372.878906 C 885.617188 398.230469 883.410156 416.578125 880.308594 427.910156 C 875.269531 446.28125 871.632812 457.144531 869.402344 460.496094 C 866.207031 467.527344 862.378906 474.3125 857.914062 480.855469 C 849.28125 495.058594 826.523438 517.191406 789.636719 547.257812 C 786.457031 550.28125 784.449219 552.792969 783.617188 554.796875 C 783.347656 557.136719 783.5 558.25 784.070312 558.144531 C 788.054688 561.753906 799.492188 560.570312 818.375 554.585938 C 837.3125 547.042969 851.992188 538.105469 862.414062 527.769531 C 869.6875 521.894531 877.65625 511.363281 886.324219 496.167969 C 895.183594 478.484375 901.550781 458.695312 905.433594 436.800781 C 909.1875 420.019531 911.582031 393.316406 912.621094 356.691406 C 912.804688 316.691406 910.820312 287.910156 906.671875 270.355469 C 903.546875 254.027344 896.414062 239.910156 885.277344 228.011719 C 877.160156 219.535156 868.984375 213.578125 860.75 210.136719 C 857.738281 209.089844 855.886719 209.222656 855.195312 210.535156 C 854.503906 211.695312 854.519531 214.035156 855.242188 217.558594 "/><path style=" stroke:none;fill-rule:nonzero;fill:#f46766;fill-opacity:0.486;" d="M 809.058594 349.574219 L 808.769531 349.128906 C 803.929688 342.445312 799.484375 329.226562 795.425781 309.476562 C 793.1875 294.78125 793.695312 284.382812 796.953125 278.273438 C 797.859375 276.730469 798.984375 275.300781 800.339844 273.984375 C 800.808594 273.171875 803.214844 271.480469 807.554688 268.902344 C 812.765625 266.058594 819.378906 264.457031 827.386719 264.089844 C 832.554688 263.976562 837.21875 264.898438 841.375 266.863281 C 844.308594 268.039062 847.8125 271.683594 851.886719 277.804688 C 855.078125 282.710938 858.417969 289.628906 861.90625 298.566406 C 865.292969 306.90625 868.128906 316.183594 870.417969 326.40625 C 871.792969 333.074219 872.089844 339.527344 871.308594 345.769531 C 870.878906 348.863281 870.058594 351.820312 868.84375 354.644531 L 866.671875 358.730469 C 864.445312 362.105469 861.390625 364.464844 857.507812 365.804688 C 851.746094 366.9375 846.390625 367.042969 841.441406 366.121094 C 826.199219 363.25 815.402344 357.734375 809.058594 349.574219 "/><path style=" stroke:none;fill-rule:nonzero;fill:#b42f2e;fill-opacity:0.545;" d="M 586.410156 513.972656 L 589.769531 518.589844 C 608.863281 546.515625 625.523438 563.160156 639.757812 568.53125 C 644.152344 570.746094 652.878906 572.632812 665.941406 574.1875 C 679.289062 572.707031 688.335938 568.941406 693.070312 562.882812 C 701.675781 552.445312 701.398438 536.222656 692.246094 514.21875 C 688.699219 507.144531 683.902344 499.851562 677.855469 492.34375 C 676.714844 490.320312 665.34375 477.335938 643.753906 453.390625 L 631.257812 437.914062 C 626.457031 431.382812 622.871094 424.875 620.492188 418.386719 C 615.378906 400.578125 617.203125 382.691406 625.96875 364.726562 C 634.382812 346.894531 642.023438 334.132812 648.894531 326.441406 C 663.945312 309.152344 676.28125 298.0625 685.898438 293.164062 C 696.378906 286.292969 711.921875 279.792969 732.523438 273.664062 L 757.386719 267.738281 C 765.097656 266.148438 779.785156 263.703125 801.4375 260.40625 L 811.414062 257.828125 C 812.421875 257.464844 813.402344 256.71875 814.363281 255.582031 L 826.5 239.433594 C 828.996094 235.71875 829.699219 232.8125 828.613281 230.714844 C 824.464844 226.6875 816.878906 226.675781 805.855469 230.675781 L 739.519531 260.992188 C 729.761719 264.898438 720.722656 267.871094 712.402344 269.917969 C 689.308594 275.589844 668.304688 277.550781 649.386719 275.800781 C 638.925781 273.605469 631.664062 269.171875 627.601562 262.496094 C 619.210938 249.285156 616.148438 238.988281 618.40625 231.601562 C 620.34375 224.695312 625.597656 220.238281 634.171875 218.230469 C 637.246094 217.496094 640.890625 217.191406 645.101562 217.3125 C 662.324219 219.285156 672.625 220.09375 675.996094 219.738281 C 682.132812 219.484375 687.5 217.820312 692.105469 214.753906 C 698.445312 210.351562 699.324219 206.339844 694.734375 202.714844 C 689.402344 199.992188 680.144531 199.363281 666.960938 200.828125 C 624.863281 206.421875 588.015625 227.164062 556.414062 263.0625 C 531.578125 293.222656 522.1875 326.460938 528.234375 362.777344 C 532.886719 398.679688 552.277344 449.078125 586.410156 513.972656 "/><path style=" stroke:none;fill-rule:nonzero;fill:#568a19;fill-opacity:1;" d="M 719.523438 222.121094 L 719.652344 222.046875 C 738.167969 206.035156 749.253906 196.820312 752.90625 194.402344 C 761.558594 188.140625 770.074219 183.128906 778.460938 179.371094 C 786.621094 175.609375 796.464844 172.046875 807.996094 168.675781 C 811.910156 167.503906 816.992188 166.128906 823.25 164.546875 L 861.5625 155.371094 C 864.457031 154.671875 868.191406 153.597656 872.765625 152.148438 C 856.050781 153.988281 838.960938 157.207031 821.496094 161.800781 C 804.589844 165.976562 789.859375 170.875 777.308594 176.496094 C 753.574219 187.957031 734.3125 203.164062 719.523438 222.121094 "/></g></svg>