<svg xmlns="http://www.w3.org/2000/svg" xmlns:xlink="http://www.w3.org/1999/xlink" width="1920" zoomAndPan="magnify" viewBox="0 0 1440 809.999993" height="1080" preserveAspectRatio="xMidYMid meet" version="1.2"><defs><clipPath id="733339e1e0"><path d="M 534.761719 146.890625 L 827.191406 146.890625 L 827.191406 582.5 L 534.761719 582.5 Z M 534.761719 146.890625 "/></clipPath><clipPath id="a66f8dd757"><path d="M 735 97.25 L 747 97.25 L 747 133 L 735 133 Z M 735 97.25 "/></clipPath></defs><g id="a6a1487df6"><g clip-rule="nonzero" clip-path="url(#733339e1e0)"><path style=" stroke:none;fill-rule:nonzero;fill:#231815;fill-opacity:1;" d="M 802.300781 355.324219 L 805.195312 351.566406 C 815.859375 337.703125 813.238281 317.761719 799.347656 307.109375 L 791.800781 301.320312 C 797.867188 294.519531 806.617188 284.332031 816.832031 271.335938 C 825.132812 260.734375 830.050781 243.167969 822.8125 231.496094 C 814.847656 218.660156 795.527344 215.261719 765.359375 221.390625 C 746.023438 225.324219 733.273438 223.242188 727.4375 215.226562 C 713.90625 196.621094 739.148438 151.707031 739.402344 151.253906 C 740.183594 149.878906 739.710938 148.101562 738.324219 147.355469 C 736.949219 146.574219 735.199219 147.058594 734.417969 148.433594 C 733.296875 150.40625 707.113281 197.007812 722.796875 218.582031 C 730.0625 228.5625 744.765625 231.417969 766.503906 226.996094 C 793.675781 221.472656 811.464844 224.074219 817.9375 234.507812 C 824.171875 244.5625 818.402344 260.035156 812.316406 267.808594 C 802.039062 280.890625 793.253906 291.09375 787.242188 297.828125 L 770.980469 285.359375 C 757.09375 274.710938 737.121094 277.332031 726.453125 291.191406 L 722.246094 296.65625 C 664.652344 279.667969 601.664062 300.050781 564.957031 347.753906 C 515.855469 411.558594 527.914062 503.351562 591.835938 552.363281 C 655.757812 601.375 747.710938 589.335938 796.808594 525.53125 C 835.246094 475.582031 837.359375 407.445312 802.300781 355.324219 "/></g><g clip-rule="nonzero" clip-path="url(#a66f8dd757)"><path style=" stroke:none;fill-rule:nonzero;fill:#231815;fill-opacity:1;" d="M 737.085938 131.863281 C 737.449219 132.140625 737.886719 132.339844 738.371094 132.417969 C 739.933594 132.667969 741.410156 131.609375 741.660156 130.050781 L 746.398438 100.78125 C 746.648438 99.21875 745.585938 97.753906 744.027344 97.503906 C 742.464844 97.25 740.992188 98.308594 740.738281 99.867188 L 736 129.136719 C 735.828125 130.210938 736.277344 131.242188 737.085938 131.863281 "/></g><path style=" stroke:none;fill-rule:nonzero;fill:#231815;fill-opacity:1;" d="M 756.195312 144.789062 C 757.160156 145.527344 758.53125 145.597656 759.578125 144.867188 L 783.851562 127.980469 C 785.152344 127.074219 785.472656 125.292969 784.566406 123.996094 C 783.65625 122.699219 781.875 122.382812 780.574219 123.28125 L 756.304688 140.171875 C 755.003906 141.078125 754.683594 142.859375 755.589844 144.152344 C 755.761719 144.402344 755.96875 144.613281 756.195312 144.789062 "/><path style=" stroke:none;fill-rule:nonzero;fill:#231815;fill-opacity:1;" d="M 760.507812 165.925781 C 760.261719 167.046875 760.703125 168.160156 761.5625 168.816406 C 761.882812 169.066406 762.261719 169.246094 762.683594 169.339844 L 790.476562 175.496094 C 792.019531 175.839844 793.550781 174.867188 793.894531 173.324219 C 794.234375 171.785156 793.261719 170.25 791.71875 169.910156 L 763.925781 163.753906 C 762.382812 163.410156 760.851562 164.382812 760.507812 165.925781 "/><path style=" stroke:none;fill-rule:nonzero;fill:#231815;fill-opacity:1;" d="M 714.339844 134.597656 C 714.515625 134.851562 714.726562 135.070312 714.960938 135.246094 C 715.917969 135.984375 717.277344 136.054688 718.328125 135.339844 C 719.632812 134.445312 719.964844 132.664062 719.070312 131.359375 L 702.085938 106.648438 C 701.191406 105.347656 699.40625 105.015625 698.101562 105.90625 C 696.796875 106.804688 696.460938 108.585938 697.359375 109.886719 L 714.339844 134.597656 "/><path style=" stroke:none;fill-rule:nonzero;fill:#231815;fill-opacity:1;" d="M 673.207031 148.40625 C 673.574219 148.6875 674.015625 148.886719 674.507812 148.964844 L 703.878906 153.585938 C 705.441406 153.832031 706.910156 152.765625 707.15625 151.203125 C 707.402344 149.644531 706.34375 148.175781 704.769531 147.933594 L 675.398438 143.308594 C 673.835938 143.066406 672.367188 144.128906 672.121094 145.691406 C 671.949219 146.761719 672.402344 147.789062 673.207031 148.40625 "/></g></svg>