<svg xmlns="http://www.w3.org/2000/svg" xmlns:xlink="http://www.w3.org/1999/xlink" width="1920" zoomAndPan="magnify" viewBox="0 0 1440 809.999993" height="1080" preserveAspectRatio="xMidYMid meet" version="1.2"><defs><clipPath id="bd3d235b66"><path d="M 501.339844 186 L 938 186 L 938 622 L 501.339844 622 Z M 501.339844 186 "/></clipPath><clipPath id="d18b51f218"><path d="M 501.339844 185 L 938 185 L 938 622 L 501.339844 622 Z M 501.339844 185 "/></clipPath><clipPath id="3b13bcff5b"><path d="M 530 240 L 938 240 L 938 622.738281 L 530 622.738281 Z M 530 240 "/></clipPath></defs><g id="520934a828"><path style="fill-rule:evenodd;fill:#134c00;fill-opacity:1;stroke-width:1;stroke-linecap:round;stroke-linejoin:round;stroke:#134c00;stroke-opacity:1;stroke-miterlimit:4;" d="M 619.020459 136.069707 C 617.026533 134.440654 613.906673 132.713367 612.383592 130.638166 C 609.931104 127.306384 608.39574 121.776608 607.556408 117.728534 C 606.643378 113.328453 606.581963 107.250202 606.831716 102.764166 C 606.991394 99.878532 606.225759 95.269703 608.277005 93.23134 C 608.948471 92.572351 610.446986 91.987038 611.294507 92.388162 C 612.088802 92.760634 612.260763 94.201405 612.502327 95.04049 C 613.439922 98.29041 613.091907 102.919704 613.587317 106.263765 C 614.303821 111.089528 614.688685 117.818582 616.846383 122.190011 C 618.177032 124.891456 621.321457 127.596994 623.241686 129.913687 C 621.976546 131.759675 619.020459 136.069707 619.020459 136.069707 Z M 619.020459 136.069707 " transform="matrix(0.954069,0,0,0.95435,130.970126,24.989477)"/><path style=" stroke:none;fill-rule:nonzero;fill:#2f7208;fill-opacity:1;" d="M 724.628906 150.414062 C 720.871094 148.53125 717.730469 145.171875 716.203125 140.984375 L 717.996094 140.332031 C 719.433594 144.3125 721.125 148.246094 724.800781 150.074219 Z M 724.628906 150.414062 "/><path style=" stroke:none;fill-rule:nonzero;fill:#2f7208;fill-opacity:1;" d="M 716.203125 140.984375 C 714.679688 136.773438 714.863281 132.023438 714.863281 128.351562 L 715.242188 128.351562 C 715.242188 131.996094 716.539062 136.335938 717.996094 140.332031 Z M 716.203125 140.984375 "/><path style="fill:none;stroke-width:1;stroke-linecap:butt;stroke-linejoin:round;stroke:#2f7208;stroke-opacity:1;stroke-miterlimit:4;" d="M 613.407168 121.543301 L 615.286454 120.859754 " transform="matrix(0.954069,0,0,0.95435,130.970126,24.989477)"/><path style=" stroke:none;fill-rule:evenodd;fill:#134c00;fill-opacity:1;" d="M 729.996094 160.878906 C 729.90625 161.019531 729.6875 161.175781 729.6875 161.34375 C 729.683594 162.859375 732.160156 164.003906 733.558594 164.578125 C 740.03125 167.242188 750.640625 167.5 756.882812 164.335938 C 760.699219 162.40625 764.410156 157.328125 765.941406 153.335938 C 766.863281 150.933594 766.90625 147.34375 766.589844 144.789062 C 766.273438 142.230469 765.203125 138.84375 763.871094 136.636719 C 762.511719 134.378906 760.132812 131.5 757.789062 130.292969 C 754.761719 128.734375 749.917969 128.511719 746.53125 128.867188 C 743.550781 129.183594 739.683594 130.613281 737.082031 132.105469 C 732.316406 134.839844 726.652344 139.898438 723.496094 144.402344 C 719.496094 150.113281 715.855469 159.105469 714.953125 166.019531 C 714.347656 170.679688 716.03125 176.929688 716.492188 181.601562 C 720.320312 181.601562 729.25 181.601562 729.25 181.601562 C 729.203125 179.578125 729.089844 176.878906 729.089844 174.855469 C 729.082031 170.902344 728.34375 165.492188 729.414062 161.6875 C 730.054688 159.40625 733.203125 154.757812 733.203125 154.757812 C 734.484375 153.011719 736.09375 150.605469 737.472656 148.933594 C 739.320312 146.683594 741.5625 143.292969 744.074219 141.8125 C 746.042969 140.648438 749.269531 139.171875 751.449219 139.871094 C 752.808594 140.308594 754.085938 142.070312 754.683594 143.367188 C 755.757812 145.703125 756.734375 149.757812 755.332031 151.910156 C 752.046875 156.949219 741.691406 155.847656 735.675781 155.863281 C 734.941406 155.863281 733.890625 155.164062 733.25 155.519531 C 733.101562 155.601562 732.941406 155.992188 732.941406 155.992188 C 732.058594 157.457031 729.996094 160.878906 729.996094 160.878906 Z M 729.996094 160.878906 "/><path style="fill:none;stroke-width:1;stroke-linecap:round;stroke-linejoin:round;stroke:#134c00;stroke-opacity:1;stroke-miterlimit:4;" d="M 627.082143 164.103337 C 627.082143 164.103337 617.722564 164.103337 613.710147 164.103337 C 613.227019 159.207992 611.462374 152.659035 612.096991 147.775968 C 613.042775 140.531184 616.858666 131.108872 621.051233 125.124762 C 624.359431 120.40542 630.296172 115.104858 635.291222 112.239689 C 638.018029 110.676125 642.07139 109.178051 645.195344 108.84651 C 648.745105 108.474038 653.822042 108.707345 656.995127 110.340491 C 659.45171 111.605259 661.945141 114.621872 663.369959 116.987683 C 664.766116 119.300283 665.887955 122.849 666.219594 125.529979 C 666.551233 128.206865 666.506195 131.968423 665.53994 134.485678 C 663.934972 138.668825 660.045384 143.989852 656.045249 146.011843 C 649.502551 149.327253 638.382422 149.057108 631.59816 146.265615 C 630.132399 145.66393 627.536611 144.464652 627.540705 142.87653 C 627.540705 142.700526 627.769986 142.536802 627.864155 142.389451 C 627.864155 142.389451 630.025948 138.803897 630.95126 137.268985 C 630.95126 137.268985 631.119127 136.859675 631.27471 136.77372 C 631.946176 136.401248 633.047544 137.133913 633.817273 137.133913 C 640.122501 137.11754 650.976501 138.271794 654.41981 132.991697 C 655.889665 130.7364 654.866089 126.487764 653.740156 124.040091 C 653.113727 122.681183 651.77489 120.835195 650.350072 120.376768 C 648.065451 119.644104 644.683556 121.191295 642.620026 122.411038 C 639.987389 123.962322 637.637259 127.515132 635.700653 129.872756 C 634.255364 131.624602 632.56851 134.145951 631.225579 135.975566 C 631.225579 135.975566 627.92557 140.846353 627.254104 143.236722 C 626.132265 147.2234 626.906088 152.892341 626.914277 157.034557 C 626.914277 159.154782 627.033011 161.983112 627.082143 164.103337 M 613.710147 164.103337 L 613.710147 164.103337 M 627.864155 142.389451 L 627.864155 142.389451 " transform="matrix(0.954069,0,0,0.95435,130.970126,24.989477)"/><path style=" stroke:none;fill-rule:nonzero;fill:#2f7208;fill-opacity:1;" d="M 752.714844 132.253906 C 749.148438 132.253906 745.761719 132.519531 742.664062 133.570312 L 741.785156 130.882812 C 745.511719 129.703125 749.238281 130.957031 752.714844 130.957031 Z M 752.714844 132.253906 "/><path style=" stroke:none;fill-rule:nonzero;fill:#2f7208;fill-opacity:1;" d="M 742.664062 133.570312 C 730.335938 137.488281 722.386719 149.609375 718.527344 161.199219 L 717.296875 160.789062 C 721.210938 149.058594 728.523438 135.320312 741.785156 130.882812 Z M 742.664062 133.570312 "/><path style="fill:none;stroke-width:1;stroke-linecap:butt;stroke-linejoin:round;stroke:#2f7208;stroke-opacity:1;stroke-miterlimit:4;" d="M 641.141983 113.774601 L 640.220764 110.958549 " transform="matrix(0.954069,0,0,0.95435,130.970126,24.989477)"/><path style="fill-rule:evenodd;fill:#134b02;fill-opacity:1;stroke-width:1;stroke-linecap:round;stroke-linejoin:round;stroke:#134b02;stroke-opacity:1;stroke-miterlimit:4;" d="M 644.233182 172.53512 C 642.374368 170.811926 640.200293 168.114574 638.0385 166.784317 C 636.020008 165.540015 632.953375 164.488089 630.62781 164.021475 C 628.285868 163.546676 625.055463 163.636724 622.664389 163.689934 C 618.103335 163.788169 611.691655 163.280625 607.515465 165.126612 C 605.210372 166.145793 603.024013 168.920914 601.099691 170.545874 C 614.041785 171.143466 644.229088 172.53512 644.233182 172.53512 Z M 644.233182 172.53512 " transform="matrix(0.954069,0,0,0.95435,130.970126,24.989477)"/><path style=" stroke:none;fill-rule:nonzero;fill:#2f7208;fill-opacity:1;" d="M 711.804688 183.5 C 717.519531 182.550781 723.730469 181.480469 729.578125 182.308594 L 729.308594 184.199219 C 723.648438 183.390625 717.558594 182.929688 711.867188 183.878906 Z M 711.804688 183.5 "/><path style=" stroke:none;fill-rule:nonzero;fill:#2f7208;fill-opacity:1;" d="M 729.578125 182.308594 C 730.753906 182.480469 734.050781 183.25 735.085938 184.242188 L 734.816406 184.511719 C 733.96875 183.621094 730.675781 184.390625 729.308594 184.199219 Z M 729.578125 182.308594 "/><path style="fill:none;stroke-width:1;stroke-linecap:butt;stroke-linejoin:round;stroke:#2f7208;stroke-opacity:1;stroke-miterlimit:4;" d="M 627.426065 164.844188 L 627.143558 166.825248 " transform="matrix(0.954069,0,0,0.95435,130.970126,24.989477)"/><g clip-rule="nonzero" clip-path="url(#bd3d235b66)"><path style=" stroke:none;fill-rule:evenodd;fill:#3a8909;fill-opacity:1;" d="M 664.117188 614.652344 C 653.132812 611.75 639.160156 605.71875 628.464844 601.890625 C 628.460938 601.890625 603.175781 588.957031 593.222656 582.003906 C 584.976562 576.242188 574.792969 567.402344 567.628906 560.339844 C 560.808594 553.613281 552.449219 543.886719 546.632812 536.269531 C 541.824219 529.976562 536.351562 520.914062 531.945312 514.332031 C 527.847656 506.125 521.800781 495.449219 518.285156 486.976562 C 514.6875 478.296875 510.710938 466.367188 508.339844 457.273438 C 506.367188 449.714844 504.511719 439.433594 503.433594 431.699219 C 502.9375 428.109375 502.480469 423.296875 502.296875 419.679688 C 501.8125 409.863281 501.8125 396.730469 502.429688 386.921875 C 502.777344 381.402344 503.632812 374.070312 504.554688 368.617188 C 505.96875 360.238281 508.34375 349.121094 510.839844 340.996094 C 513.644531 331.859375 518.375 319.96875 522.484375 311.34375 C 525.824219 304.335938 530.96875 295.316406 535.164062 288.789062 C 540.640625 280.265625 548.496094 269.210938 555.152344 261.578125 C 561.839844 253.914062 571.832031 244.660156 579.496094 237.980469 C 584.5 233.617188 591.367188 227.992188 596.859375 224.269531 C 604.066406 219.382812 614.292969 213.804688 622.058594 209.867188 C 627.894531 206.910156 635.832031 203.238281 641.953125 200.933594 C 648.914062 198.320312 658.484375 195.660156 665.65625 193.714844 C 671.015625 192.257812 678.179688 190.316406 683.652344 189.378906 C 689.5625 188.363281 697.550781 187.761719 703.527344 187.328125 C 709.933594 186.863281 718.5 186.703125 724.917969 186.4375 C 739.070312 188.191406 758.253906 188.835938 772.089844 192.28125 C 787.242188 196.054688 807.019531 203.375 820.667969 210.957031 C 838.402344 220.8125 859.875 237.878906 874.300781 252.144531 C 885.128906 262.847656 897.941406 278.875 905.9375 291.832031 C 912.582031 302.597656 919.460938 318.144531 923.796875 330.027344 C 928.046875 341.671875 932.046875 357.785156 934.527344 369.933594 C 935.4375 374.402344 936.460938 380.417969 936.804688 384.96875 C 937.671875 396.394531 937.164062 411.730469 936.316406 423.15625 C 935.851562 429.433594 934.777344 437.777344 933.625 443.964844 C 932.136719 451.941406 929.691406 462.519531 927.117188 470.210938 C 923.859375 479.945312 918.003906 492.371094 913.574219 501.628906 C 910.917969 507.175781 907.34375 514.585938 904.066406 519.789062 C 897.324219 530.480469 886.972656 543.910156 878.421875 553.214844 C 870.550781 561.78125 859.117188 572.410156 849.796875 579.375 C 840.082031 586.632812 826.074219 594.929688 815.164062 600.230469 C 805.265625 605.042969 791.457031 610.242188 780.886719 613.308594 C 770.90625 616.207031 757.253906 618.929688 746.945312 620.238281 C 741.144531 620.976562 733.335938 621.335938 727.492188 621.394531 C 717.195312 621.5 703.433594 621.003906 693.203125 619.855469 C 684.394531 618.863281 672.6875 616.917969 664.117188 614.652344 M 724.917969 186.4375 Z M 724.917969 186.4375 "/></g><g clip-rule="nonzero" clip-path="url(#d18b51f218)"><path style="fill:none;stroke-width:1;stroke-linecap:round;stroke-linejoin:round;stroke:#3a8909;stroke-opacity:1;stroke-miterlimit:4;" d="M 521.445008 604.496156 C 532.655212 608.507392 547.300537 614.827136 558.81372 617.868308 C 567.796623 620.242305 580.067251 622.280668 589.299907 623.320315 C 600.022889 624.523686 614.447121 625.043509 625.239706 624.932996 C 631.364785 624.871599 639.549298 624.495034 645.62934 623.721439 C 656.434208 622.350251 670.7438 619.497361 681.204746 616.460282 C 692.283933 613.2472 706.757297 607.799286 717.132263 602.756589 C 728.567654 597.202255 743.249828 588.508514 753.432361 580.903537 C 763.201371 573.605543 775.185398 562.468223 783.43542 553.492058 C 792.397852 543.742298 803.247757 529.670226 810.314526 518.467416 C 813.749646 513.015409 817.495935 505.250801 820.280061 499.438602 C 824.923002 489.737959 831.060363 476.717813 834.475013 466.517812 C 837.173159 458.458502 839.736193 447.374391 841.296123 439.016285 C 842.503943 432.532817 843.629876 423.789959 844.117099 417.21235 C 845.005562 405.240038 845.537822 389.170534 844.628887 377.198221 C 844.268588 372.429762 843.19588 366.12639 842.241907 361.443886 C 839.642024 348.71435 835.449457 331.83032 830.994855 319.628794 C 826.450177 307.177588 819.240108 290.887057 812.275697 279.606478 C 803.894657 266.029671 790.46534 249.235689 779.11593 238.0206 C 763.995666 223.072605 741.489277 205.189858 722.901137 194.862971 C 708.595639 186.918267 687.866179 179.247801 671.984374 175.293868 C 657.48235 171.683755 637.375223 171.008394 622.54156 169.170593 C 615.814619 169.448924 606.83581 169.616741 600.121152 170.103819 C 593.856867 170.558153 585.484015 171.188491 579.289334 172.252696 C 573.553214 173.23504 566.044261 175.26931 560.426876 176.796035 C 552.909734 178.834398 542.878689 181.621798 535.58264 184.360081 C 529.166865 186.775009 520.84724 190.622521 514.73035 193.720997 C 506.590874 197.84684 495.871986 203.691784 488.317995 208.81225 C 482.561404 212.712973 475.363618 218.607034 470.118814 223.179025 C 462.08579 230.178223 451.612561 239.874773 444.603113 247.905432 C 437.626419 255.903346 429.392774 267.486814 423.652559 276.417955 C 419.255277 283.257522 413.863079 292.708486 410.362449 300.051504 C 406.055241 309.089065 401.097039 321.548457 398.157329 331.122214 C 395.541069 339.635858 393.051732 351.284816 391.569594 360.064512 C 390.603338 365.778477 389.706686 373.461222 389.342293 379.24477 C 388.695393 389.52254 388.695393 403.283537 389.203086 413.569493 C 389.395519 417.359702 389.874552 422.402399 390.394529 426.163956 C 391.524557 434.268291 393.469351 445.041325 395.536975 452.961471 C 398.022217 462.490203 402.190218 474.990526 405.961072 484.08539 C 409.645946 492.96332 415.983928 504.149758 420.278853 512.749358 C 424.897228 519.646228 430.633348 529.142216 435.673436 535.736198 C 441.769854 543.717739 450.531665 553.909554 457.680319 560.957869 C 465.189273 568.358191 475.863123 577.620872 484.506198 583.658192 C 494.938485 590.943907 521.440914 604.496156 521.445008 604.496156 " transform="matrix(0.954069,0,0,0.95435,130.970126,24.989477)"/></g><path style=" stroke:none;fill-rule:evenodd;fill:#114201;fill-opacity:1;" d="M 745.480469 241.925781 C 745.9375 243.355469 746.738281 245.191406 747.277344 246.585938 C 747.277344 246.589844 743.441406 250.304688 741.796875 251.898438 C 741.796875 251.898438 748.289062 255.613281 751.070312 257.207031 C 751.070312 257.207031 751.207031 259.660156 751.265625 260.710938 C 751.265625 260.710938 749.183594 260.496094 748.289062 260.40625 C 748.289062 260.40625 748.183594 264.253906 748.136719 265.902344 C 748.136719 265.902344 750.753906 268.304688 751.875 269.335938 C 751.875 269.335938 751.714844 272.273438 751.648438 273.535156 C 751.648438 273.535156 749.722656 273.535156 748.898438 273.535156 C 748.945312 276.648438 747.449219 281.242188 749.050781 283.914062 C 749.25 284.246094 749.734375 284.503906 750.066406 284.695312 C 750.777344 285.105469 752.101562 285.050781 752.625 285.6875 C 753.167969 286.34375 753.894531 288.132812 753.117188 288.492188 C 752.714844 288.679688 752.253906 287.914062 751.882812 287.667969 C 751.882812 287.667969 751.9375 289.804688 751.964844 290.71875 C 751.964844 290.71875 753.871094 293.4375 754.6875 294.597656 C 754.6875 294.601562 754.582031 305.847656 754.539062 310.667969 C 754.539062 310.667969 752.695312 310.703125 752.226562 311.246094 C 751.472656 312.121094 751.800781 313.992188 752.128906 315.101562 C 753.347656 319.222656 759.671875 322.171875 761.1875 326.1875 C 762.453125 329.53125 762.523438 334.585938 761.78125 338.082031 C 760.824219 342.582031 755.980469 347.261719 754.65625 351.671875 C 753.886719 354.242188 753.503906 357.875 753.585938 360.558594 C 753.6875 364.113281 754.886719 368.773438 755.800781 372.210938 C 756.5625 375.058594 758.640625 378.578125 758.992188 381.503906 C 759.199219 383.242188 759.367188 385.765625 758.574219 387.328125 C 757.910156 388.640625 755.511719 389.226562 754.886719 390.558594 C 754.042969 392.355469 754.128906 395.339844 754.886719 397.171875 C 755.570312 398.824219 758.480469 399.734375 759.058594 401.425781 C 759.277344 402.0625 758.988281 402.996094 758.972656 403.667969 C 758.695312 416.210938 759.160156 432.945312 759.070312 445.492188 C 759.070312 445.816406 759.125 446.253906 759.058594 446.574219 C 758.28125 450.300781 754.105469 454.148438 753.230469 457.855469 C 752.578125 460.628906 752.621094 464.566406 753.230469 467.351562 C 753.914062 470.476562 757.179688 473.867188 757.734375 477.019531 C 758.003906 478.5625 758.34375 480.949219 757.449219 482.238281 C 756.957031 482.949219 755.53125 482.988281 754.886719 483.566406 C 753.984375 484.375 752.851562 485.773438 752.707031 486.980469 C 752.546875 488.332031 753.726562 489.984375 754.222656 491.25 C 755.121094 493.523438 756.96875 496.320312 757.496094 498.707031 C 757.949219 500.753906 758.1875 503.652344 757.691406 505.6875 C 756.847656 509.164062 751.585938 512.371094 751.613281 515.949219 C 751.621094 516.765625 752.335938 517.714844 752.726562 518.433594 C 753.085938 519.101562 753.871094 519.839844 754.089844 520.570312 C 754.402344 521.597656 754.109375 523.078125 754.089844 524.152344 C 754.035156 527.4375 754.355469 531.878906 753.691406 535.09375 C 753.117188 537.867188 751.753906 541.46875 750.3125 543.90625 C 749.960938 544.5 749.128906 545.066406 748.890625 545.710938 C 748.425781 546.964844 748.113281 549.074219 748.890625 550.160156 C 749.449219 550.941406 751.382812 550.492188 751.875 551.316406 C 752.167969 551.808594 751.835938 552.65625 751.765625 553.222656 C 751.378906 556.40625 750.976562 560.800781 749.578125 563.683594 C 747.925781 567.074219 743.859375 570.375 741.410156 573.246094 C 741.410156 573.246094 743.898438 579.570312 742.703125 581.914062 C 742.183594 582.9375 740.113281 583.042969 739.5 584.015625 C 738.949219 584.894531 738.507812 586.53125 739.011719 587.4375 C 739.449219 588.226562 741.25 587.949219 741.746094 588.707031 C 742.570312 589.957031 742.003906 592.265625 741.550781 593.691406 C 740.949219 595.605469 738.777344 597.484375 737.839844 599.261719 C 736.296875 602.183594 735.152344 606.496094 733.832031 609.523438 C 732.804688 611.878906 731.066406 614.855469 730.121094 617.246094 C 729.640625 618.457031 729.175781 620.136719 728.773438 621.378906 C 728.773438 621.378906 732.332031 620.324219 733.734375 619.589844 C 739.964844 616.34375 746.835938 609.738281 752.300781 605.320312 C 755.582031 602.667969 759.824219 598.957031 763.046875 596.230469 C 763.046875 596.230469 763.183594 589.734375 763.242188 586.949219 C 763.246094 586.945312 774.984375 574.929688 777.617188 568.398438 C 778.601562 565.953125 779.058594 562.347656 778.964844 559.710938 C 778.925781 558.5625 778.441406 557.085938 778.214844 555.964844 C 778.214844 555.960938 782.789062 545.503906 784.207031 540.832031 C 785.769531 535.683594 787.3125 528.640625 787.953125 523.300781 C 788.417969 519.425781 787.964844 514.179688 788.398438 510.300781 C 789.558594 499.929688 793.8125 486.539062 795.453125 476.230469 C 796.617188 468.894531 799.785156 458.90625 798.273438 451.632812 C 798.21875 451.382812 798.070312 451.0625 797.921875 450.851562 C 796.851562 449.304688 794.609375 447.96875 793.191406 446.730469 C 793.191406 446.730469 793.191406 444.914062 793.191406 444.136719 C 793.195312 444.136719 799.886719 434.863281 801.277344 430.246094 C 804.21875 420.515625 802.566406 406.519531 802.042969 396.363281 C 801.683594 389.398438 800.398438 380.160156 799.253906 373.277344 C 798.554688 369.085938 796.984375 363.617188 796.363281 359.414062 C 795.273438 352.015625 794.914062 342.027344 794.34375 334.570312 C 793.625 325.175781 792.785156 312.644531 792.113281 303.246094 C 792.113281 303.246094 793.988281 299.664062 793.949219 297.996094 C 793.882812 294.878906 791.171875 291.253906 789.621094 288.550781 C 788.3125 286.265625 786.105469 283.507812 784.597656 281.347656 C 784.597656 281.34375 785.371094 275.433594 785.332031 272.886719 C 785.304688 270.886719 785.277344 268.144531 784.597656 266.265625 C 783.449219 263.097656 779.050781 260.316406 778.164062 257.070312 C 777.5625 254.886719 778.9375 251.753906 778.53125 249.527344 C 778.292969 248.238281 777.128906 246.769531 776.875 245.480469 C 776.621094 244.183594 777.4375 242.265625 776.875 241.066406 C 776.527344 240.324219 775.414062 239.828125 774.851562 239.230469 C 769.128906 233.125 763.277344 223.503906 758.140625 216.894531 C 753.511719 210.9375 747.464844 202.863281 742.351562 197.316406 C 740.828125 195.660156 738.683594 193.546875 736.984375 192.074219 C 735 190.351562 732.113281 188.347656 730.027344 186.753906 C 730.027344 186.753906 725.113281 186.382812 723.003906 186.222656 C 725.554688 188.464844 729.320312 191.097656 731.5 193.695312 C 732.949219 195.425781 734.390625 198.101562 735.488281 200.070312 C 737.496094 203.667969 740.417969 208.449219 741.492188 212.425781 C 742.898438 217.632812 741.820312 225.039062 742.65625 230.367188 C 743.210938 233.894531 744.394531 238.523438 745.480469 241.925781 M 723.003906 186.222656 Z M 723.003906 186.222656 "/><path style="fill:none;stroke-width:1;stroke-linecap:round;stroke-linejoin:round;stroke:#114201;stroke-opacity:1;stroke-miterlimit:4;" d="M 645.977356 232.196121 C 645.412342 230.734885 644.573009 228.811128 644.093976 227.313054 C 642.955759 223.747966 641.715185 218.897644 641.133794 215.201577 C 640.257613 209.61859 641.387641 201.858076 639.913692 196.401976 C 638.787758 192.235202 635.725219 187.22525 633.620746 183.455506 C 632.470247 181.392585 630.959449 178.588812 629.440462 176.77557 C 627.155841 174.053659 623.208932 171.294911 620.535351 168.945473 C 622.746275 169.11329 627.89691 169.502134 627.89691 169.502134 C 630.083268 171.172118 633.108958 173.271878 635.188865 175.076934 C 636.969887 176.620032 639.21766 178.834398 640.814438 180.569872 C 646.173882 186.382071 652.511865 194.842506 657.363615 201.084481 C 662.747624 208.010003 668.880892 218.091304 674.879047 224.488817 C 675.468627 225.115061 676.635503 225.634884 676.999896 226.412573 C 677.589476 227.669154 676.733766 229.678865 676.999896 231.037774 C 677.266026 232.388496 678.486129 233.927501 678.735881 235.278224 C 679.161689 237.61129 677.720494 240.893955 678.351017 243.181997 C 679.280424 246.583361 683.89061 249.497647 685.094335 252.81715 C 685.806744 254.78593 685.835404 257.659285 685.864064 259.754952 C 685.905007 262.423652 685.094335 268.616509 685.094335 268.620602 C 686.674736 270.884086 688.988018 273.773813 690.35961 276.168276 C 691.985049 279.0007 694.826495 282.799095 694.896099 286.065387 C 694.937042 287.81314 692.971776 291.566512 692.971776 291.566512 C 693.675996 301.414506 694.556271 314.545165 695.309623 324.389067 C 695.907392 332.202791 696.284068 342.668844 697.426378 350.421172 C 698.077373 354.825346 699.723283 360.555683 700.456163 364.947578 C 701.655794 372.159617 703.00282 381.839795 703.379496 389.137789 C 703.928133 399.779844 705.660024 414.445416 702.577013 424.641323 C 701.119441 429.479366 694.105898 439.196381 694.101804 439.196381 C 694.101804 440.010908 694.101804 441.914198 694.101804 441.914198 C 695.588036 443.21171 697.938166 444.61155 699.060006 446.232417 C 699.215589 446.453444 699.371173 446.789078 699.428493 447.051037 C 701.012989 454.672386 697.692508 465.138438 696.472406 472.825277 C 694.752798 483.626963 690.294101 497.658104 689.078093 508.52528 C 688.623625 512.589727 689.098564 518.086758 688.611342 522.147111 C 687.939876 527.742377 686.322626 535.122233 684.684905 540.516936 C 683.198672 545.412282 678.404242 556.369506 678.404242 556.373599 C 678.641712 557.548318 679.149406 559.09551 679.190349 560.29888 C 679.288612 563.061722 678.809579 566.839652 677.777814 569.401931 C 675.018253 576.245591 662.71487 588.835962 662.710776 588.840055 C 662.649361 591.758434 662.50606 598.565256 662.50606 598.565256 C 659.12826 601.422239 654.681846 605.310682 651.24263 608.089896 C 645.514699 612.71919 638.312819 619.64062 631.782404 623.041984 C 630.312549 623.811487 626.582638 624.916623 626.582638 624.916623 C 627.004351 623.615018 627.491573 621.854986 627.995173 620.586125 C 628.985994 618.081149 630.80796 614.962208 631.884762 612.49407 C 633.268636 609.321919 634.468267 604.803138 636.085517 601.741501 C 637.06815 599.879141 639.344583 597.910361 639.975106 595.904743 C 640.450045 594.410762 641.043719 591.991741 640.179821 590.681949 C 639.659845 589.887888 637.772371 590.178498 637.313809 589.351692 C 636.785643 588.402093 637.2483 586.687085 637.825597 585.766138 C 638.468402 584.746957 640.638383 584.636443 641.182926 583.564051 C 642.435783 581.108192 639.827711 574.481466 639.827711 574.481466 C 642.39484 571.473039 646.65701 568.014371 648.388901 564.461561 C 649.854661 561.440855 650.276375 556.836119 650.681711 553.500244 C 650.755408 552.906745 651.103424 552.018543 650.796351 551.502812 C 650.280469 550.639168 648.253789 551.109875 647.668303 550.291255 C 646.853537 549.153374 647.181081 546.943101 647.668303 545.629216 C 647.918056 544.953855 648.790142 544.360356 649.15863 543.738205 C 650.669428 541.184111 652.09834 537.410275 652.700203 534.504175 C 653.396234 531.135555 653.060501 526.481702 653.117822 523.039407 C 653.138293 521.913805 653.445366 520.36252 653.117822 519.286035 C 652.888541 518.520626 652.065585 517.747031 651.68891 517.047111 C 651.279479 516.293981 650.530222 515.299358 650.522033 514.4439 C 650.493373 510.694622 656.0084 507.334188 656.89277 503.691331 C 657.412746 501.558827 657.162994 498.521748 656.688055 496.376964 C 656.135324 493.876081 654.198718 490.945423 653.257028 488.56324 C 652.737051 487.237076 651.500572 485.505695 651.668438 484.089483 C 651.819927 482.824716 653.007275 481.359387 653.95306 480.512115 C 654.62862 479.906337 656.123041 479.865406 656.638923 479.120462 C 657.576519 477.769739 657.220314 475.268856 656.937807 473.652083 C 656.356416 470.348952 652.933578 466.796143 652.217075 463.521664 C 651.578363 460.603285 651.533326 456.477442 652.217075 453.571342 C 653.134199 449.686992 657.51101 445.65529 658.325776 441.750474 C 658.395379 441.41484 658.338059 440.956413 658.338059 440.616686 C 658.432228 427.469654 657.945006 409.934821 658.235701 396.791883 C 658.252079 396.08787 658.555057 395.109619 658.325776 394.442444 C 657.719819 392.670133 654.669563 391.716441 653.95306 389.98506 C 653.158765 388.065397 653.06869 384.93827 653.95306 383.055445 C 654.608148 381.659698 657.122051 381.045733 657.818082 379.670452 C 658.649226 378.033213 658.473171 375.389072 658.256173 373.567643 C 657.887686 370.501912 655.709516 366.814031 654.911127 363.830162 C 653.95306 360.228236 652.696108 355.345169 652.589656 351.62045 C 652.503676 348.808491 652.904918 345.00191 653.711496 342.308651 C 655.099465 337.687543 660.176402 332.784011 661.179506 328.068762 C 661.957424 324.405439 661.883726 319.10897 660.557172 315.605278 C 658.968582 311.397573 652.339904 308.307284 651.062481 303.989065 C 650.718559 302.826625 650.374638 300.866031 651.164839 299.949177 C 651.656155 299.380236 653.588667 299.343398 653.588667 299.343398 C 653.633704 294.292515 653.74425 282.508485 653.74425 282.504392 C 652.888541 281.288742 650.89052 278.439945 650.89052 278.439945 C 650.86186 277.48216 650.80454 275.243236 650.80454 275.243236 C 651.193499 275.501101 651.676627 276.303348 652.09834 276.106879 C 652.913106 275.730314 652.151566 273.855675 651.582458 273.168035 C 651.033821 272.50086 649.645852 272.558163 648.900689 272.128388 C 648.552673 271.927826 648.044979 271.657681 647.83617 271.309768 C 646.157505 268.510089 647.725623 263.696605 647.676492 260.434406 C 648.54039 260.434406 650.558882 260.434406 650.558882 260.434406 C 650.628485 259.112335 650.796351 256.034325 650.796351 256.034325 C 649.621286 254.953747 646.878102 252.436492 646.878102 252.436492 C 646.927234 250.709204 647.03778 246.677502 647.03778 246.677502 C 647.975376 246.771644 650.15764 246.996764 650.15764 246.996764 C 650.096225 245.895721 649.952925 243.325255 649.952925 243.325255 C 647.03778 241.655271 640.233047 237.762734 640.233047 237.762734 C 641.956749 236.09275 645.977356 232.200214 645.977356 232.196121 " transform="matrix(0.954069,0,0,0.95435,130.970126,24.989477)"/><path style=" stroke:none;fill-rule:evenodd;fill:#114201;fill-opacity:1;" d="M 701.347656 241.925781 C 700.945312 243.347656 700.234375 245.191406 699.757812 246.585938 C 699.757812 246.589844 703.15625 250.304688 704.613281 251.898438 C 704.613281 251.898438 698.863281 255.613281 696.398438 257.207031 C 696.398438 257.207031 696.277344 259.660156 696.226562 260.710938 C 696.226562 260.710938 698.070312 260.496094 698.863281 260.40625 C 698.863281 260.40625 698.957031 264.253906 698.996094 265.902344 C 698.996094 265.902344 696.679688 268.304688 695.683594 269.335938 C 695.683594 269.335938 695.828125 272.273438 695.886719 273.535156 C 695.886719 273.535156 697.589844 273.535156 698.320312 273.535156 C 698.28125 276.648438 699.691406 281.191406 698.183594 283.914062 C 698.011719 284.226562 697.585938 284.5 697.289062 284.695312 C 696.664062 285.097656 695.480469 285.101562 695.023438 285.6875 C 694.496094 286.355469 693.789062 288.183594 694.582031 288.492188 C 694.96875 288.640625 695.351562 287.914062 695.679688 287.667969 C 695.679688 287.667969 695.628906 289.804688 695.605469 290.71875 C 695.605469 290.71875 693.917969 293.4375 693.195312 294.597656 C 693.195312 294.601562 693.285156 305.847656 693.324219 310.667969 C 693.324219 310.667969 694.960938 310.757812 695.375 311.246094 C 696.121094 312.128906 695.761719 313.984375 695.457031 315.101562 C 694.386719 319.066406 688.769531 322.304688 687.433594 326.1875 C 686.273438 329.566406 686.238281 334.574219 686.910156 338.082031 C 687.757812 342.496094 692.054688 347.328125 693.21875 351.671875 C 693.914062 354.261719 694.242188 357.878906 694.171875 360.558594 C 694.078125 364.101562 693.023438 368.761719 692.207031 372.210938 C 691.535156 375.046875 689.691406 378.605469 689.378906 381.503906 C 689.191406 383.246094 689.007812 385.742188 689.75 387.328125 C 690.332031 388.578125 692.464844 389.292969 693.015625 390.558594 C 693.808594 392.378906 693.722656 395.320312 693.015625 397.171875 C 692.417969 398.753906 689.832031 399.816406 689.320312 401.425781 C 689.117188 402.070312 689.386719 402.996094 689.398438 403.667969 C 689.644531 416.210938 689.230469 432.945312 689.308594 445.492188 C 689.3125 445.816406 689.261719 446.253906 689.320312 446.570312 C 690.007812 450.230469 693.714844 454.214844 694.484375 457.855469 C 695.074219 460.640625 695.03125 464.554688 694.484375 467.351562 C 693.878906 470.429688 690.984375 473.917969 690.496094 477.019531 C 690.25 478.566406 689.890625 480.925781 690.75 482.238281 C 691.179688 482.894531 692.457031 483.007812 693.015625 483.5625 C 693.851562 484.394531 694.820312 485.808594 694.949219 486.980469 C 695.097656 488.316406 694.046875 489.980469 693.605469 491.25 C 692.8125 493.515625 691.171875 496.351562 690.703125 498.707031 C 690.296875 500.761719 690.082031 503.640625 690.53125 505.6875 C 691.277344 509.082031 695.929688 512.472656 695.917969 515.949219 C 695.914062 516.75 695.277344 517.710938 694.933594 518.433594 C 694.613281 519.097656 693.917969 519.859375 693.722656 520.570312 C 693.4375 521.605469 693.707031 523.078125 693.722656 524.152344 C 693.769531 527.4375 693.480469 531.863281 694.078125 535.09375 C 694.582031 537.839844 695.765625 541.4375 697.070312 543.90625 C 697.378906 544.492188 698.117188 545.085938 698.328125 545.710938 C 698.757812 546.976562 699.089844 549.0625 698.328125 550.160156 C 697.835938 550.871094 696.121094 550.570312 695.6875 551.316406 C 695.398438 551.8125 695.71875 552.652344 695.78125 553.222656 C 696.125 556.398438 696.441406 560.757812 697.722656 563.683594 C 699.164062 566.976562 702.785156 570.375 704.957031 573.246094 C 704.957031 573.246094 702.667969 579.550781 703.808594 581.914062 C 704.269531 582.867188 706.113281 583.101562 706.648438 584.015625 C 707.167969 584.910156 707.574219 586.527344 707.082031 587.4375 C 706.6875 588.160156 705.09375 588.011719 704.65625 588.707031 C 703.859375 589.972656 704.421875 592.253906 704.828125 593.691406 C 705.363281 595.558594 707.292969 597.503906 708.121094 599.261719 C 709.5 602.210938 710.492188 606.484375 711.667969 609.523438 C 712.574219 611.871094 714.121094 614.871094 714.957031 617.246094 C 715.382812 618.460938 715.792969 620.136719 716.148438 621.378906 C 716.148438 621.378906 712.984375 620.308594 711.753906 619.589844 C 706.117188 616.292969 700.132812 609.726562 695.308594 605.320312 C 692.390625 602.660156 688.644531 598.960938 685.789062 596.230469 C 685.789062 596.230469 685.667969 589.734375 685.617188 586.949219 C 685.613281 586.945312 675.1875 574.742188 672.882812 568.398438 C 671.984375 565.925781 671.605469 562.339844 671.6875 559.710938 C 671.722656 558.570312 672.152344 557.085938 672.351562 555.964844 C 672.351562 555.960938 668.296875 545.476562 667.042969 540.832031 C 665.652344 535.664062 664.292969 528.621094 663.726562 523.300781 C 663.3125 519.421875 663.71875 514.183594 663.332031 510.300781 C 662.308594 499.960938 658.535156 486.519531 657.085938 476.230469 C 656.050781 468.886719 653.222656 458.925781 654.585938 451.632812 C 654.632812 451.386719 654.761719 451.066406 654.894531 450.851562 C 655.824219 449.355469 657.828125 447.96875 659.085938 446.730469 C 659.085938 446.730469 659.085938 444.914062 659.085938 444.136719 C 659.085938 444.136719 653.152344 434.773438 651.921875 430.246094 C 649.257812 420.4375 650.78125 406.519531 651.246094 396.363281 C 651.5625 389.40625 652.699219 380.167969 653.714844 373.277344 C 654.332031 369.09375 655.726562 363.605469 656.273438 359.414062 C 657.246094 352.003906 657.5625 342.023438 658.066406 334.570312 C 658.703125 325.175781 659.449219 312.644531 660.039062 303.246094 C 660.039062 303.246094 658.378906 299.644531 658.414062 297.996094 C 658.476562 294.9375 660.859375 291.273438 662.25 288.550781 C 663.402344 286.285156 665.363281 283.507812 666.699219 281.347656 C 666.699219 281.34375 666.015625 275.429688 666.046875 272.886719 C 666.074219 270.890625 666.078125 268.164062 666.699219 266.265625 C 667.707031 263.179688 671.613281 260.21875 672.398438 257.070312 C 672.949219 254.871094 671.707031 251.761719 672.074219 249.527344 C 672.285156 248.253906 673.316406 246.753906 673.539062 245.480469 C 673.769531 244.179688 673.015625 242.285156 673.539062 241.066406 C 673.84375 240.359375 674.839844 239.820312 675.332031 239.230469 C 680.472656 233.050781 685.574219 223.515625 690.132812 216.894531 C 694.226562 210.949219 699.554688 202.90625 704.121094 197.316406 C 705.464844 195.671875 707.359375 193.554688 708.875 192.074219 C 710.621094 190.367188 713.1875 188.347656 715.039062 186.753906 C 715.039062 186.753906 719.390625 186.382812 721.257812 186.222656 C 719 188.464844 715.640625 191.148438 713.734375 193.695312 C 712.425781 195.445312 711.171875 198.109375 710.199219 200.070312 C 708.414062 203.6875 705.832031 208.503906 704.882812 212.425781 C 703.617188 217.667969 704.597656 225.027344 703.851562 230.367188 C 703.359375 233.878906 702.316406 238.511719 701.347656 241.925781 M 721.257812 186.222656 Z M 721.257812 186.222656 "/><path style="fill:none;stroke-width:1;stroke-linecap:round;stroke-linejoin:round;stroke:#114201;stroke-opacity:1;stroke-miterlimit:4;" d="M 596.170149 232.196121 C 596.669654 230.734885 597.414817 228.802942 597.83653 227.313054 C 598.851918 223.735687 599.945097 218.881272 600.460979 215.201577 C 601.242991 209.606311 600.215321 201.894914 601.541875 196.401976 C 602.536791 192.292505 605.243126 187.245715 607.114223 183.455506 C 608.133705 181.400771 609.447976 178.609278 610.819568 176.77557 C 612.817588 174.10687 616.33869 171.294911 618.705197 168.945473 C 616.74812 169.11329 612.187065 169.502134 612.187065 169.502134 C 610.246365 171.172118 607.556408 173.28825 605.726254 175.076934 C 604.137664 176.628218 602.151927 178.846677 600.743486 180.569872 C 595.957245 186.427096 590.372614 194.854785 586.081784 201.084481 C 581.303731 208.022282 575.95657 218.013535 570.568466 224.488817 C 570.052584 225.106874 569.008537 225.671722 568.689181 226.412573 C 568.140544 227.689619 568.930745 229.674772 568.689181 231.037774 C 568.455806 232.372124 567.374909 233.943874 567.153817 235.278224 C 566.768952 237.619476 568.070941 240.877582 567.493644 243.181997 C 566.670689 246.481034 562.576385 249.583602 561.520055 252.81715 C 560.86906 254.806396 560.864966 257.663378 560.836306 259.754952 C 560.803552 262.419559 561.520055 268.616509 561.520055 268.620602 C 560.119803 270.884086 558.064462 273.794279 556.856643 276.168276 C 555.39907 279.021165 552.901545 282.860491 552.836036 286.065387 C 552.799187 287.792675 554.539267 291.566512 554.539267 291.566512 C 553.921027 301.414506 553.139015 314.545165 552.471643 324.389067 C 551.943478 332.198698 551.611839 342.656565 550.592358 350.421172 C 550.019155 354.813066 548.557489 360.56387 547.910589 364.947578 C 546.84607 372.167803 545.654627 381.847981 545.322988 389.137789 C 544.835766 399.779844 543.238988 414.363554 546.031303 424.641323 C 547.321009 429.385224 553.540256 439.196381 553.540256 439.196381 C 553.540256 440.010908 553.540256 441.914198 553.540256 441.914198 C 552.221891 443.21171 550.121513 444.66476 549.147068 446.232417 C 549.007862 446.457537 548.87275 446.793171 548.823618 447.051037 C 547.394706 454.692851 550.358982 465.130252 551.443973 472.825277 C 552.96296 483.606498 556.918057 497.690849 557.990765 508.52528 C 558.396101 512.59382 557.970293 518.082665 558.404289 522.147111 C 558.997964 527.721911 560.422781 535.101767 561.880353 540.516936 C 563.194625 545.38363 567.444512 556.369506 567.444512 556.373599 C 567.235703 557.548318 566.78533 559.103696 566.748481 560.29888 C 566.6625 563.053536 567.059648 566.811 568.001338 569.401931 C 570.416977 576.049123 581.344674 588.835962 581.348769 588.840055 C 581.401994 591.758434 581.528918 598.565256 581.528918 598.565256 C 584.521854 601.426332 588.448291 605.302496 591.506736 608.089896 C 596.563202 612.706911 602.835675 619.587409 608.743756 623.041984 C 610.033462 623.795114 613.349848 624.916623 613.349848 624.916623 C 612.977266 623.615018 612.547364 621.859079 612.101085 620.586125 C 611.224904 618.097522 609.60356 614.954022 608.653681 612.49407 C 607.421296 609.30964 606.381343 604.83179 604.936053 601.741501 C 604.068061 599.899607 602.045475 597.861244 601.484555 595.904743 C 601.058747 594.398482 600.469168 592.008113 601.304406 590.681949 C 601.762968 589.953378 603.433444 590.108915 603.846968 589.351692 C 604.362851 588.398 603.937043 586.703458 603.392501 585.766138 C 602.831581 584.808353 600.89907 584.562767 600.415942 583.564051 C 599.220405 581.087727 601.619667 574.481466 601.619667 574.481466 C 599.343234 571.473039 595.547814 567.912043 594.037016 564.461561 C 592.694085 561.395831 592.362446 556.827933 592.002147 553.500244 C 591.936638 552.902652 591.600905 552.022636 591.903884 551.502812 C 592.358352 550.72103 594.155751 551.036199 594.671633 550.291255 C 595.470023 549.141094 595.122007 546.95538 594.671633 545.629216 C 594.450541 544.97432 593.676718 544.352169 593.353268 543.738205 C 591.98577 541.151367 590.745196 537.381623 590.217031 534.504175 C 589.590602 531.119183 589.893581 526.481702 589.844449 523.039407 C 589.828072 521.913805 589.545565 520.370707 589.844449 519.286035 C 590.049164 518.541092 590.77795 517.742937 591.113683 517.047111 C 591.473982 516.289888 592.141354 515.282985 592.145448 514.4439 C 592.157731 510.801043 587.281415 507.248233 586.499403 503.691331 C 586.028558 501.546547 586.253745 498.529934 586.679552 496.376964 C 587.170869 493.908826 588.890476 490.937237 589.72162 488.56324 C 590.184276 487.232983 591.285644 485.489323 591.130061 484.089483 C 590.994949 482.861554 589.979561 481.379852 589.10338 480.508022 C 588.517895 479.926802 587.179057 479.808102 586.728684 479.120462 C 585.827937 477.745181 586.204613 475.272949 586.462554 473.652083 C 586.974342 470.402162 590.008221 466.747026 590.642838 463.521664 C 591.216041 460.591006 591.261078 456.489721 590.642838 453.571342 C 589.83626 449.756575 585.950766 445.581614 585.230169 441.746381 C 585.168754 441.41484 585.22198 440.956413 585.217886 440.616686 C 585.136 427.469654 585.569996 409.934821 585.312055 396.791883 C 585.299772 396.08787 585.017265 395.117805 585.230169 394.442444 C 585.766522 392.756088 588.476952 391.642765 589.10338 389.98506 C 589.844449 388.044932 589.934524 384.962829 589.10338 383.055445 C 588.526083 381.729281 586.290593 380.980244 585.680542 379.670452 C 584.902624 378.008655 585.095057 375.393165 585.291583 373.567643 C 585.619127 370.530564 587.551639 366.801751 588.255859 363.830162 C 589.111569 360.215956 590.217031 355.33289 590.315294 351.62045 C 590.388992 348.812584 590.04507 345.022375 589.316284 342.308651 C 588.096181 337.757126 583.592447 332.693963 582.703983 328.068762 C 581.999763 324.39316 582.036612 319.145808 583.25262 315.605278 C 584.652872 311.536738 590.540481 308.14356 591.66232 303.989065 C 591.981676 302.818439 592.358352 300.874217 591.57634 299.949177 C 591.142343 299.43754 589.42683 299.343398 589.42683 299.343398 C 589.385887 294.292515 589.291718 282.508485 589.291718 282.504392 C 590.049164 281.288742 591.817904 278.439945 591.817904 278.439945 C 591.842469 277.48216 591.895695 275.243236 591.895695 275.243236 C 591.551774 275.501101 591.150532 276.262417 590.745196 276.106879 C 589.914052 275.783525 590.655121 273.867955 591.207852 273.168035 C 591.686886 272.55407 592.92746 272.549977 593.582549 272.128388 C 593.893716 271.923733 594.339995 271.637216 594.520144 271.309768 C 596.100545 268.456879 594.622502 263.696605 594.663445 260.434406 C 593.89781 260.434406 592.112693 260.434406 592.112693 260.434406 C 592.051279 259.112335 591.89979 256.034325 591.89979 256.034325 C 592.943837 254.953747 595.371759 252.436492 595.371759 252.436492 C 595.330816 250.709204 595.232553 246.677502 595.232553 246.677502 C 594.401409 246.771644 592.468898 246.996764 592.468898 246.996764 C 592.522124 245.895721 592.649047 243.325255 592.649047 243.325255 C 595.232553 241.655271 601.259368 237.762734 601.259368 237.762734 C 599.732193 236.09275 596.170149 232.200214 596.170149 232.196121 " transform="matrix(0.954069,0,0,0.95435,130.970126,24.989477)"/><path style=" stroke:none;fill-rule:evenodd;fill:#114201;fill-opacity:1;" d="M 825.871094 279.140625 C 830.65625 288.960938 836.605469 302.261719 841.203125 312.171875 C 841.203125 312.171875 840.496094 325.507812 841.675781 331.046875 C 842.246094 333.722656 844.417969 336.867188 844.976562 339.542969 C 846.398438 346.332031 845.03125 355.730469 845.214844 362.664062 C 845.371094 368.703125 844.902344 376.851562 846.058594 382.777344 C 846.578125 385.441406 848.523438 388.667969 848.914062 391.351562 C 849.433594 394.886719 847.597656 399.78125 848.441406 403.257812 C 848.972656 405.460938 851.457031 407.722656 852.011719 409.925781 C 852.847656 413.25 852.402344 417.980469 851.773438 421.351562 C 850.910156 425.96875 847.234375 431.414062 846.277344 436.015625 C 844.148438 446.253906 848 460.734375 845.375 470.855469 C 843.890625 476.59375 838.324219 482.890625 836.667969 488.578125 C 835.398438 492.933594 835.664062 499.128906 834.867188 503.597656 C 833.800781 509.5625 830.480469 517.179688 830.109375 523.230469 C 830.050781 524.222656 830.632812 525.582031 830.34375 526.53125 C 829.222656 530.269531 823.457031 532.652344 821.390625 535.960938 C 818.804688 540.101562 818.011719 546.875 815.859375 551.253906 C 813.308594 556.433594 808.683594 562.660156 805.453125 567.445312 C 800.632812 574.574219 794.738281 584.578125 788.800781 590.808594 C 780.8125 599.195312 768.445312 608.894531 758.28125 614.453125 C 753.5625 617.03125 746.554688 618.910156 741.527344 620.820312 C 741.527344 620.820312 750.964844 619.964844 754.867188 618.917969 C 764.429688 616.351562 776.808594 611.167969 785.199219 605.914062 C 793.363281 600.800781 802.265625 591.273438 809.492188 584.898438 C 814.257812 580.695312 820.078125 574.417969 825.261719 570.742188 C 826.613281 569.785156 828.605469 568.800781 830.039062 567.96875 C 830.039062 567.96875 830.308594 564.890625 830.425781 563.574219 C 830.425781 563.574219 838.320312 553.476562 841.902344 549.316406 C 844.066406 546.804688 847.128906 543.609375 849.367188 541.164062 C 849.367188 541.164062 849.132812 537.5 849.03125 535.929688 C 849.03125 535.925781 863.355469 513.519531 868.097656 503.1875 C 871.390625 496.011719 874.796875 485.996094 876.871094 478.378906 C 877.972656 474.328125 879.25 468.84375 879.648438 464.664062 C 880.265625 458.285156 879.605469 449.707031 879.285156 443.308594 C 879.050781 438.589844 877.851562 432.332031 878.007812 427.609375 C 878.210938 421.519531 880.71875 413.613281 881.109375 407.53125 C 882.0625 392.765625 880.6875 372.964844 879.105469 358.253906 C 877.671875 344.890625 875.761719 326.839844 871.433594 314.121094 C 868.449219 305.34375 863.40625 293.644531 857.367188 286.617188 C 856.476562 285.582031 854.90625 284.601562 853.847656 283.738281 C 853.847656 283.734375 844.1875 263.933594 838.980469 256.085938 C 832.019531 245.601562 821.550781 232.285156 812.46875 223.574219 C 806.457031 217.808594 797.429688 211.1875 790.394531 206.730469 C 784.882812 203.246094 777.027344 199.453125 771.125 196.675781 C 767.578125 195.007812 762.832031 192.761719 759.101562 191.566406 C 756.480469 190.722656 752.84375 190.125 750.160156 189.519531 C 748.441406 189.132812 744.429688 188.246094 744.429688 188.246094 C 749.75 190.671875 757.390625 192.75 762.410156 195.75 C 769.875 200.207031 778.574219 208.101562 784.707031 214.265625 C 791.835938 221.429688 800.46875 231.910156 806.023438 240.355469 C 813.207031 251.277344 820.148438 267.390625 825.871094 279.140625 Z M 825.871094 279.140625 "/><path style="fill:none;stroke-width:1;stroke-linecap:round;stroke-linejoin:round;stroke:#114201;stroke-opacity:1;stroke-miterlimit:4;" d="M 744.424893 300.919241 C 739.605897 290.535051 733.370272 276.598051 728.35475 266.308002 C 722.356595 253.995962 715.081017 237.111932 707.551592 225.667629 C 701.729492 216.81835 692.68108 205.836568 685.208976 198.329825 C 678.780918 191.870916 669.662904 183.598765 661.838689 178.928539 C 656.577508 175.78504 648.56905 173.607512 642.992608 171.065698 C 642.992608 171.065698 647.197458 171.994831 648.998952 172.400048 C 651.811739 173.034478 655.623536 173.660722 658.370813 174.544831 C 662.280874 175.797319 667.255453 178.150851 670.973081 179.898604 C 677.159574 182.808797 685.393219 186.783195 691.170282 190.434239 C 698.544123 195.104464 708.00606 202.042266 714.307193 208.083679 C 723.82645 217.211288 734.799184 231.16466 742.095234 242.150536 C 747.552941 250.37357 757.678155 271.121486 757.678155 271.125579 C 758.787711 272.030153 760.433621 273.057521 761.367122 274.142192 C 767.696916 281.505676 772.982663 293.764505 776.110711 302.961697 C 780.647199 316.288825 782.649314 335.203033 784.151924 349.205522 C 785.810117 364.62013 787.251312 385.368045 786.252302 400.839957 C 785.842871 407.212911 783.214328 415.497342 783.001424 421.878482 C 782.837652 426.827038 784.094603 433.384181 784.340262 438.328644 C 784.675995 445.033139 785.367932 454.021583 784.721032 460.705613 C 784.303413 465.085228 782.964575 470.831938 781.809982 475.076481 C 779.635906 483.058022 776.065673 493.552726 772.614175 501.071748 C 767.64369 511.897993 752.629878 535.376005 752.629878 535.380098 C 752.73633 537.025524 752.981988 540.86485 752.981988 540.86485 C 750.635952 543.427129 747.426018 546.775284 745.157773 549.407146 C 741.403297 553.766296 733.128708 564.346955 733.128708 564.346955 C 733.005879 565.726329 732.723372 568.95169 732.723372 568.95169 C 731.220763 569.82352 729.132668 570.854981 727.716039 571.85779 C 722.282897 575.709396 716.182385 582.287005 711.187334 586.691178 C 703.612872 593.371115 694.281953 603.354181 685.724858 608.712047 C 676.930293 614.217264 663.955444 619.648806 653.932588 622.337971 C 649.842378 623.434922 639.95054 624.33131 639.95054 624.33131 C 645.219909 622.329785 652.565091 620.361005 657.51101 617.65956 C 668.164388 611.835081 681.126955 601.671918 689.499806 592.884036 C 695.723148 586.355544 701.901453 575.873119 706.953824 568.403215 C 710.339813 563.38917 715.187469 556.864771 717.861049 551.437323 C 720.117011 546.848959 720.948154 539.751527 723.658583 535.412843 C 725.82447 531.945989 731.867663 529.449199 733.042728 525.532103 C 733.345707 524.537481 732.735655 523.113082 732.79707 522.073435 C 733.186029 515.733226 736.666187 507.751684 737.783932 501.501523 C 738.61917 496.819019 738.340757 490.327365 739.671406 485.76356 C 741.407391 479.804009 747.241774 473.205935 748.797609 467.193173 C 751.548982 456.587956 747.511998 441.41484 749.743394 430.68683 C 750.746498 425.86516 754.599238 420.159381 755.504079 415.321339 C 756.163262 411.788995 756.630013 406.832253 755.753832 403.349026 C 755.172441 401.040519 752.568463 398.670615 752.011638 396.362107 C 751.127268 392.71925 753.051591 387.590598 752.507049 383.886344 C 752.097618 381.074385 750.058655 377.693486 749.514113 374.901993 C 748.302199 368.692763 748.793515 360.15456 748.629743 353.82663 C 748.437311 346.56138 749.870317 336.713386 748.37999 329.599581 C 747.794505 326.795809 745.518072 323.500864 744.920304 320.697092 C 743.683824 314.893079 744.424893 300.919241 744.424893 300.919241 " transform="matrix(0.954069,0,0,0.95435,130.970126,24.989477)"/><path style=" stroke:none;fill-rule:evenodd;fill:#114201;fill-opacity:1;" d="M 624.347656 278.945312 C 619.949219 288.777344 614.5 302.066406 610.28125 311.976562 C 610.28125 311.976562 610.941406 325.292969 609.847656 330.851562 C 609.328125 333.507812 607.332031 336.6875 606.820312 339.347656 C 605.503906 346.15625 606.769531 355.53125 606.601562 362.46875 C 606.457031 368.503906 606.894531 376.640625 605.828125 382.582031 C 605.351562 385.230469 603.570312 388.492188 603.207031 391.15625 C 602.726562 394.695312 604.429688 399.574219 603.644531 403.0625 C 603.15625 405.234375 600.875 407.558594 600.367188 409.726562 C 599.589844 413.066406 600.003906 417.777344 600.585938 421.15625 C 601.375 425.742188 604.753906 431.25 605.628906 435.816406 C 607.59375 446.085938 604.019531 460.492188 606.453125 470.660156 C 607.8125 476.332031 612.929688 482.75 614.441406 488.382812 C 615.617188 492.757812 615.363281 498.929688 616.09375 503.402344 C 617.074219 509.355469 620.121094 517.011719 620.460938 523.035156 C 620.515625 524.027344 619.972656 525.382812 620.242188 526.335938 C 621.269531 529.945312 626.582031 532.515625 628.460938 535.765625 C 630.875 539.953125 631.539062 546.652344 633.53125 551.058594 C 635.859375 556.195312 640.109375 562.457031 643.078125 567.25 C 647.492188 574.367188 652.832031 584.316406 658.355469 590.613281 C 665.605469 598.875 676.894531 608.648438 686.351562 614.253906 C 690.644531 616.800781 697.109375 618.714844 701.722656 620.625 C 701.722656 620.625 693.050781 619.761719 689.480469 618.722656 C 680.636719 616.144531 669.28125 610.894531 661.65625 605.71875 C 654.058594 600.554688 646 591.070312 639.375 584.703125 C 634.996094 580.496094 629.714844 574.253906 624.90625 570.546875 C 623.671875 569.59375 621.835938 568.605469 620.523438 567.773438 C 620.523438 567.773438 620.277344 564.695312 620.171875 563.378906 C 620.167969 563.378906 612.9375 553.292969 609.640625 549.121094 C 607.660156 546.617188 604.847656 543.414062 602.792969 540.964844 C 602.792969 540.964844 603.007812 537.304688 603.101562 535.734375 C 603.101562 535.730469 589.9375 513.253906 585.609375 502.992188 C 582.570312 495.78125 579.460938 485.773438 577.5625 478.179688 C 576.546875 474.121094 575.378906 468.636719 575.011719 464.46875 C 574.445312 458.085938 575.050781 449.511719 575.347656 443.113281 C 575.5625 438.394531 576.660156 432.132812 576.519531 427.414062 C 576.332031 421.332031 574.03125 413.40625 573.671875 407.335938 C 572.796875 392.566406 574.058594 372.777344 575.511719 358.058594 C 576.828125 344.714844 578.539062 326.714844 582.550781 313.921875 C 585.277344 305.226562 589.785156 293.554688 595.453125 286.417969 C 596.261719 285.402344 597.714844 284.40625 598.679688 283.542969 C 598.683594 283.539062 607.503906 263.785156 612.324219 255.890625 C 618.667969 245.492188 628.210938 232.167969 636.640625 223.378906 C 642.113281 217.675781 650.386719 211.019531 656.894531 206.535156 C 661.917969 203.074219 669.140625 199.261719 674.566406 196.480469 C 677.816406 194.816406 682.195312 192.675781 685.601562 191.367188 C 687.96875 190.460938 691.214844 189.496094 693.664062 188.839844 C 695.410156 188.367188 699.542969 187.496094 699.542969 187.496094 C 694.203125 189.300781 687.269531 192.445312 682.566406 195.550781 C 675.660156 200.113281 667.695312 207.960938 662.109375 214.070312 C 655.507812 221.285156 647.617188 231.789062 642.554688 240.160156 C 635.90625 251.160156 629.59375 267.210938 624.347656 278.945312 Z M 624.347656 278.945312 "/><path style="fill:none;stroke-width:1;stroke-linecap:round;stroke-linejoin:round;stroke:#114201;stroke-opacity:1;stroke-miterlimit:4;" d="M 502.386023 300.714586 C 506.807872 290.330396 512.519426 276.405675 517.129612 266.103347 C 522.628262 253.80768 529.244657 236.989139 536.213162 225.462974 C 541.51938 216.691464 549.789874 205.685123 556.709248 198.12517 C 562.564102 191.723565 570.912388 183.50053 578.151117 178.719791 C 583.080659 175.465778 590.348048 172.170834 595.944962 170.279823 C 595.944962 170.279823 591.613188 171.192584 589.783035 171.687849 C 587.215906 172.375489 583.813539 173.386484 581.332391 174.336083 C 577.762158 175.707271 573.172444 177.950289 569.765983 179.693949 C 564.078995 182.608235 556.508627 186.603099 551.243352 190.229584 C 544.422242 194.928461 535.750506 201.9031 530.014386 207.879024 C 521.178878 217.088495 511.176494 231.050053 504.527344 241.945881 C 499.474973 250.218033 490.230035 270.916831 490.225941 270.920924 C 489.214648 271.825498 487.691567 272.869239 486.844046 273.933444 C 480.903211 281.411535 476.178384 293.641712 473.32056 302.752949 C 469.11571 316.157846 467.322405 335.018843 465.942624 349.000867 C 464.419543 364.423661 463.097083 385.159297 464.014207 400.635302 C 464.390883 406.995977 466.802428 415.300873 466.998955 421.673827 C 467.14635 426.61829 465.99585 433.179527 465.770664 438.123989 C 465.459497 444.828484 464.82488 453.812835 465.418554 460.500958 C 465.803418 464.868294 467.027615 470.615004 468.092134 474.867733 C 470.081966 482.824716 473.341032 493.311234 476.5264 500.867093 C 481.062889 511.619662 494.860693 535.17135 494.860693 535.175443 C 494.76243 536.820869 494.537243 540.656102 494.537243 540.656102 C 496.690847 543.222474 499.638746 546.578815 501.714558 549.202491 C 505.17015 553.57392 512.748707 564.1423 512.752801 564.1423 C 512.863347 565.521674 513.121288 568.747035 513.121288 568.747035 C 514.496974 569.618865 516.421297 570.654419 517.715097 571.653135 C 522.755185 575.537485 528.290684 582.078257 532.880399 586.486523 C 539.824338 593.158274 548.270887 603.096316 556.234308 608.507392 C 564.22639 613.930747 576.128531 619.431872 585.398035 622.133316 C 589.140229 623.222081 598.229583 624.126655 598.229583 624.126655 C 593.394211 622.12513 586.618138 620.119512 582.118498 617.450812 C 572.206188 611.577216 560.37365 601.336284 552.774622 592.679381 C 546.985276 586.081307 541.388362 575.656185 536.761799 568.19856 C 533.650128 563.176329 529.195525 556.615092 526.75532 551.232668 C 524.667225 546.615653 523.971194 539.595989 521.440914 535.208188 C 519.471554 531.80273 513.9033 529.109471 512.826498 525.327449 C 512.543991 524.328733 513.1131 522.908427 513.055779 521.868781 C 512.699575 515.557223 509.506018 507.53475 508.478348 501.296868 C 507.712713 496.610271 507.978843 490.143176 506.746457 485.558905 C 505.161962 479.656658 499.798423 472.931697 498.373606 466.988519 C 495.822854 456.334184 499.569142 441.238837 497.509708 430.478082 C 496.592583 425.69325 493.051011 419.921981 492.223961 415.116684 C 491.61391 411.576154 491.179914 406.639877 491.99468 403.140278 C 492.52694 400.868609 494.918013 398.433215 495.429801 396.157452 C 496.252756 392.502316 494.46764 387.390036 494.971239 383.681689 C 495.352009 380.890196 497.219012 377.472459 497.718517 374.697338 C 498.836262 368.471736 498.3777 359.945812 498.529189 353.621975 C 498.705244 346.352632 497.37869 336.529196 498.75847 329.394926 C 499.294824 326.607526 501.387013 323.275744 501.931556 320.492437 C 503.077961 314.667958 502.386023 300.714586 502.386023 300.714586 " transform="matrix(0.954069,0,0,0.95435,130.970126,24.989477)"/><path style=" stroke:none;fill-rule:evenodd;fill:#114201;fill-opacity:1;" d="M 781.539062 611.453125 C 773.230469 614.398438 761.722656 616.957031 753.230469 619.3125 C 753.230469 619.3125 765.84375 617.683594 771.109375 616.324219 C 786.570312 612.328125 806.675781 604.78125 820.941406 597.601562 C 830.554688 592.765625 842.683594 584.914062 851.25 578.394531 C 858.046875 573.21875 866.640625 565.628906 872.429688 559.339844 C 882.511719 548.382812 894.660156 532.429688 902.03125 519.484375 C 910.53125 504.558594 919.417969 483.15625 923.949219 466.585938 C 928.480469 450.015625 931.457031 427.0625 931.996094 409.890625 C 932.523438 393.035156 931.136719 370.335938 927.628906 353.839844 C 924.964844 341.324219 918.832031 325.238281 913.632812 313.542969 C 907.3125 299.324219 897.71875 280.710938 888.507812 268.171875 C 881.9375 259.230469 871.5 248.566406 863.207031 241.199219 C 852.859375 232 837.792969 221.132812 825.957031 213.945312 C 819.75 210.179688 811.03125 205.886719 804.371094 202.992188 C 800.328125 201.234375 794.753906 199.324219 790.59375 197.867188 C 787.503906 196.789062 780.234375 194.464844 780.234375 194.464844 C 785.261719 196.921875 792.378906 199.328125 797.304688 201.984375 C 810.992188 209.359375 828.476562 220.808594 840.363281 230.832031 C 847.878906 237.167969 856.726562 246.933594 863.167969 254.355469 C 871.910156 264.429688 883.730469 277.972656 890.292969 289.585938 C 896.558594 300.671875 901.648438 317.066406 905.804688 329.105469 C 908.976562 338.296875 913.148438 350.625 915.167969 360.136719 C 916.683594 367.277344 917.609375 376.996094 918.324219 384.261719 C 918.667969 387.792969 918.933594 392.519531 919.152344 396.0625 C 919.46875 401.140625 920.5625 407.933594 920.058594 412.996094 C 919.84375 415.136719 918.71875 417.851562 918.429688 419.984375 C 917.398438 427.535156 919.710938 437.960938 917.960938 445.378906 C 917.316406 448.121094 914.964844 451.277344 914.234375 454 C 912.929688 458.882812 914.011719 465.917969 912.605469 470.773438 C 910.039062 479.648438 902.542969 489.832031 898.136719 497.949219 C 893.054688 507.304688 886.140625 519.699219 880.929688 528.984375 C 877.40625 535.265625 873.347656 544.058594 869.085938 549.863281 C 862.515625 558.804688 852.015625 569.441406 843.574219 576.640625 C 835.078125 583.882812 822.671875 592.308594 812.914062 597.722656 C 803.929688 602.710938 791.222656 608.023438 781.539062 611.453125 Z M 781.539062 611.453125 "/><path style="fill:none;stroke-width:1;stroke-linecap:round;stroke-linejoin:round;stroke:#114201;stroke-opacity:1;stroke-miterlimit:4;" d="M 652.217075 622.751374 C 661.118091 620.283236 673.179911 617.602257 681.888495 614.516061 C 692.038274 610.92232 705.357045 605.355707 714.773944 600.12882 C 725.001515 594.455786 738.005024 585.626973 746.910135 578.038368 C 755.757926 570.494788 766.763415 559.349282 773.650034 549.98018 C 778.11692 543.897836 782.370901 534.684271 786.063964 528.102569 C 791.525765 518.373275 798.772683 505.385874 804.099372 495.582903 C 808.717747 487.077445 816.574716 476.406738 819.264674 467.107218 C 820.738623 462.019497 819.604501 454.647827 820.971999 449.531454 C 821.737633 446.678565 824.202404 443.371341 824.877964 440.497986 C 826.712213 432.725193 824.288385 421.800713 825.369281 413.888754 C 825.672259 411.653923 826.851419 408.809219 827.076606 406.566201 C 827.604771 401.261546 826.458366 394.143648 826.126727 388.82262 C 825.897446 385.11018 825.619034 380.157531 825.258735 376.45737 C 824.509477 368.844207 823.539127 358.660579 821.950537 351.178395 C 819.833782 341.211701 815.461066 328.293883 812.136491 318.662822 C 807.780151 306.047893 802.445273 288.86916 795.87801 277.252947 C 788.999579 265.084166 776.610216 250.893394 767.447164 240.337293 C 760.695657 232.560406 751.422058 222.327661 743.544618 215.688655 C 731.085651 205.185765 712.759546 193.188894 698.413106 185.461124 C 693.250188 182.677817 685.790367 180.156469 680.520998 177.58191 C 680.520998 177.58191 688.140497 180.017304 691.379092 181.146999 C 695.739525 182.673724 701.582097 184.675249 705.819701 186.517144 C 712.80049 189.55013 721.938976 194.048445 728.444825 197.994191 C 740.850566 205.525492 756.642296 216.912492 767.488107 226.551738 C 776.180314 234.271322 787.120294 245.44548 794.006913 254.814582 C 803.661282 267.953427 813.716892 287.457041 820.341476 302.355919 C 825.790994 314.610655 832.219051 331.466034 835.011367 344.580321 C 838.688052 361.865475 840.141529 385.650469 839.588798 403.312188 C 839.023784 421.305448 835.903925 445.356494 831.154532 462.719417 C 826.40514 480.08234 817.090598 502.508426 808.181393 518.148154 C 800.455442 531.712682 787.722157 548.428895 777.154758 559.910036 C 771.087 566.499924 762.079531 574.452814 754.955442 579.87617 C 745.976634 586.707551 733.26382 594.934678 723.187739 600.001934 C 708.235341 607.525049 687.161959 615.432915 670.956704 619.620154 C 665.437582 621.044552 652.217075 622.751374 652.217075 622.751374 " transform="matrix(0.954069,0,0,0.95435,130.970126,24.989477)"/><path style=" stroke:none;fill-rule:evenodd;fill:#114201;fill-opacity:1;" d="M 668.976562 611.660156 C 677.097656 614.867188 688.414062 617.769531 696.742188 620.390625 C 696.742188 620.390625 680.527344 618.335938 673.84375 616.335938 C 660.265625 612.273438 643.21875 603.699219 630.761719 596.9375 C 621.339844 591.824219 609.136719 584.246094 600.625 577.730469 C 593.859375 572.550781 585.316406 564.960938 579.5625 558.675781 C 569.527344 547.710938 557.449219 531.757812 550.125 518.820312 C 541.667969 503.886719 532.835938 482.484375 528.332031 465.921875 C 523.824219 449.347656 520.867188 426.394531 520.328125 409.226562 C 519.800781 392.371094 521.183594 369.675781 524.671875 353.175781 C 527.316406 340.664062 533.417969 324.578125 538.589844 312.878906 C 544.871094 298.667969 554.40625 280.054688 563.574219 267.507812 C 570.101562 258.574219 580.480469 247.90625 588.730469 240.535156 C 599.015625 231.339844 614 220.46875 625.773438 213.28125 C 631.945312 209.515625 640.710938 205.433594 647.238281 202.328125 C 651.121094 200.476562 656.332031 198.078125 660.328125 196.488281 C 665.121094 194.585938 676.558594 190.832031 676.558594 190.832031 C 669.402344 192.675781 660.710938 197.703125 654.265625 201.320312 C 640.753906 208.890625 623.261719 220.152344 611.449219 230.167969 C 603.96875 236.503906 595.175781 246.269531 588.769531 253.691406 C 580.074219 263.769531 568.320312 277.316406 561.796875 288.921875 C 555.5625 300.015625 550.507812 316.402344 546.375 328.441406 C 543.21875 337.632812 539.070312 349.960938 537.0625 359.472656 C 535.554688 366.613281 534.636719 376.332031 533.925781 383.597656 C 533.578125 387.128906 533.316406 391.855469 533.097656 395.398438 C 532.785156 400.476562 531.695312 407.269531 532.199219 412.332031 C 532.410156 414.472656 533.53125 417.1875 533.820312 419.320312 C 534.84375 426.871094 532.542969 437.296875 534.28125 444.714844 C 534.925781 447.457031 537.265625 450.613281 537.988281 453.335938 C 539.289062 458.21875 538.210938 465.25 539.609375 470.109375 C 542.160156 478.976562 549.613281 489.167969 554 497.285156 C 559.050781 506.636719 565.929688 519.035156 571.109375 528.320312 C 574.613281 534.601562 578.648438 543.390625 582.886719 549.199219 C 589.414062 558.132812 599.855469 568.773438 608.257812 575.976562 C 616.699219 583.214844 629.132812 591.46875 638.742188 597.058594 C 647.453125 602.121094 659.609375 607.957031 668.976562 611.660156 Z M 668.976562 611.660156 "/><path style="fill:none;stroke-width:1;stroke-linecap:round;stroke-linejoin:round;stroke:#114201;stroke-opacity:1;stroke-miterlimit:4;" d="M 593.009346 623.881069 C 584.28029 621.1346 572.419092 618.093428 563.907034 614.732995 C 554.088893 610.852738 541.347419 604.737649 532.217122 599.432993 C 522.145134 593.57577 509.112965 584.927053 500.265174 577.342542 C 491.458326 569.794869 480.514252 558.645269 473.67267 549.284353 C 469.230351 543.197916 465.000935 533.988445 461.328344 527.406743 C 455.899297 517.677448 448.689228 504.685954 443.395293 494.887077 C 438.79739 486.381618 430.985458 475.702725 428.311877 466.411392 C 426.846117 461.319577 427.976144 453.952 426.612741 448.835628 C 425.855295 445.982738 423.402807 442.675515 422.727247 439.80216 C 420.905282 432.029366 423.316827 421.104887 422.244119 413.192928 C 421.94114 410.958096 420.766075 408.113393 420.544983 405.870375 C 420.016818 400.565719 421.159128 393.447821 421.486673 388.126794 C 421.715954 384.414353 421.990272 379.461704 422.354665 375.761544 C 423.099828 368.148381 424.06199 357.964752 425.642391 350.482568 C 427.746863 340.515874 432.095014 327.598056 435.403212 317.966996 C 439.734985 305.352067 445.033014 288.181519 451.567523 276.55712 C 458.405011 264.396525 470.724771 250.20166 479.838692 239.641467 C 486.55335 231.86458 495.769628 221.631834 503.61022 214.992829 C 515.991395 204.498125 534.325688 192.697722 548.487885 184.765298 C 555.243487 180.975089 564.353313 175.707271 571.854078 173.775329 C 571.854078 173.775329 559.865956 177.708796 554.842245 179.702135 C 550.653772 181.368026 545.191971 183.881188 541.122233 185.821317 C 534.280651 189.07533 525.093033 193.352618 518.624033 197.298365 C 506.283801 204.829665 490.578051 216.220758 479.797749 225.855911 C 471.150579 233.579588 460.272014 244.757839 453.430432 254.118755 C 443.821101 267.265787 433.826905 286.7694 427.243264 301.660092 C 421.822406 313.918921 415.427103 330.7743 412.655259 343.884494 C 408.999046 361.173741 407.549662 384.954642 408.102393 402.616362 C 408.667407 420.605529 411.766795 444.656574 416.491622 462.02359 C 421.212354 479.378327 430.469575 501.804413 439.333743 517.452327 C 447.010563 531.008669 459.670151 547.724882 470.188418 559.214209 C 476.219327 565.800005 485.17357 573.752895 492.264904 579.180343 C 501.186392 586.007631 513.976998 593.948242 523.852459 599.306107 C 536.909194 606.39126 554.776736 615.375611 569.008537 619.632433 C 576.013891 621.7281 593.009346 623.881069 593.009346 623.881069 " transform="matrix(0.954069,0,0,0.95435,130.970126,24.989477)"/><path style=" stroke:none;fill-rule:evenodd;fill:#0a2900;fill-opacity:0.404;" d="M 543.414062 522.675781 C 539.5625 520.082031 534.933594 515.933594 531.296875 513.046875 C 531.296875 513.046875 539.128906 527.824219 543.414062 533.539062 C 554.035156 547.703125 570.796875 564.726562 584.636719 575.761719 C 594.730469 583.804688 609.648438 592.660156 621.171875 598.476562 C 632.765625 604.328125 648.929688 610.855469 661.40625 614.472656 C 670.21875 617.03125 682.300781 619.378906 691.425781 620.328125 C 707.085938 621.957031 728.230469 622.074219 743.902344 620.582031 C 756.253906 619.402344 772.660156 616.414062 784.519531 612.757812 C 798.964844 608.304688 817.617188 600.167969 830.6875 592.570312 C 841.1875 586.46875 854.21875 576.644531 863.257812 568.53125 C 871.546875 561.09375 881.507812 549.964844 888.441406 541.246094 C 895.078125 532.90625 903.269531 521.207031 908.492188 511.914062 C 914.972656 500.378906 922.253906 484.183594 926.484375 471.644531 C 930.15625 460.769531 933.761719 445.792969 935.332031 434.425781 C 937.242188 420.558594 938.070312 401.757812 937.054688 387.796875 C 936.277344 377.089844 933.425781 362.976562 930.78125 352.574219 C 928.539062 343.75 924.566406 332.242188 921.265625 323.757812 C 918.476562 316.59375 914.449219 307.136719 910.78125 300.382812 C 905.773438 291.160156 898.070312 279.394531 891.660156 271.085938 C 887.339844 265.476562 880.800781 258.632812 875.9375 253.492188 C 872.359375 249.710938 867.355469 244.890625 863.679688 241.207031 C 866.121094 247.410156 869.558594 255.605469 871.8125 261.878906 C 874.832031 270.292969 878.46875 281.660156 880.996094 290.234375 C 882.234375 294.4375 883.972656 300.03125 884.796875 304.335938 C 887.113281 316.429688 889.105469 332.867188 888.878906 345.179688 C 888.554688 362.449219 885.167969 385.503906 880.554688 402.148438 C 875.621094 419.953125 866.398438 443.195312 856.722656 458.929688 C 846.296875 475.882812 828.714844 496.394531 813.605469 509.34375 C 798.058594 522.664062 774.289062 536.992188 755.523438 545.175781 C 740.417969 551.765625 718.96875 557.746094 702.660156 560.136719 C 685.578125 562.640625 662.269531 562.898438 645.113281 560.945312 C 627.839844 558.980469 605.050781 553.386719 588.832031 547.121094 C 574.402344 541.542969 556.253906 531.3125 543.414062 522.675781 M 863.679688 241.207031 Z M 863.679688 241.207031 "/><g clip-rule="nonzero" clip-path="url(#3b13bcff5b)"><path style="fill:none;stroke-width:1;stroke-linecap:round;stroke-linejoin:round;stroke:#0a2900;stroke-opacity:0.404;stroke-miterlimit:4;" d="M 419.599199 511.402728 C 423.410996 514.427528 428.262746 518.774398 432.299729 521.492215 C 445.757706 530.542056 464.779842 541.26188 479.904201 547.106825 C 496.903751 553.672154 520.78992 559.533471 538.894931 561.5923 C 556.877114 563.638849 581.307825 563.368704 599.212216 560.745028 C 616.305935 558.240052 638.787758 551.973519 654.620431 545.068462 C 674.289467 536.493421 699.203306 521.479936 715.498636 507.522471 C 731.335403 493.95385 749.763865 472.460991 760.691562 454.696944 C 770.833153 438.209944 780.499805 413.856009 785.67091 395.199667 C 790.506283 377.758976 794.056045 353.601509 794.395872 335.505922 C 794.633342 322.604476 792.545247 305.380718 790.117324 292.708486 C 789.253426 288.197892 787.431461 282.336575 786.133567 277.932401 C 783.484552 268.94805 779.672755 257.037134 776.507858 248.220601 C 774.145445 241.647085 770.542457 233.059764 767.983518 226.559924 C 771.836257 230.419716 777.081061 235.470599 780.831443 239.432719 C 785.928851 244.819236 792.782716 251.990344 797.311016 257.868033 C 804.029769 266.574053 812.103736 278.902465 817.352634 288.566271 C 821.197185 295.643237 825.418413 305.552628 828.341746 313.059371 C 831.801432 321.94958 835.965339 334.007848 838.31547 343.254157 C 841.087314 354.154078 844.076155 368.942442 844.890922 380.161624 C 845.955441 394.790358 845.087449 414.49044 843.085334 429.020939 C 841.439424 440.931855 837.660381 456.624794 833.811736 468.019979 C 829.377604 481.158825 821.745822 498.12881 814.953372 510.21573 C 809.479288 519.953211 800.893532 532.21204 793.93731 540.950805 C 786.669921 550.0866 776.229446 561.747837 767.541333 569.541096 C 758.067113 578.042462 744.408516 588.336604 733.403027 594.730023 C 719.703486 602.6911 700.153185 611.217023 685.012449 615.883155 C 672.582142 619.714295 655.386066 622.845516 642.439877 624.081631 C 626.01353 625.645195 603.851063 625.522402 587.436998 623.81558 C 577.872705 622.820957 565.209023 620.361005 555.972273 617.680026 C 542.895066 613.889817 525.952837 607.050249 513.800943 600.918788 C 501.722746 594.824165 486.0866 585.545111 475.506918 577.117421 C 461.0008 565.554419 443.432142 547.716696 432.299729 532.875122 C 427.808278 526.886919 419.599199 511.402728 419.599199 511.402728 " transform="matrix(0.954069,0,0,0.95435,130.970126,24.989477)"/></g></g></svg>